/* XPM */
static char *charecter11673009158[] = {
/* columns rows colors chars-per-pixel */
"65 65 135 2 ",
"   c None",
".  c #030202",
"X  c #0B0102",
"o  c #0B0B0B",
"O  c #130102",
"+  c #1C0001",
"@  c #19090B",
"#  c #0D1214",
"$  c #0E1518",
"%  c gray9",
"&  c #161719",
"*  c #141A1D",
"=  c #1B1B1B",
"-  c #230003",
";  c #2B0002",
":  c #340005",
">  c #3A0003",
",  c #3E0009",
"<  c #141E21",
"1  c #1F1F23",
"2  c #1F2225",
"3  c #18252A",
"4  c #1B2A2D",
"5  c #222223",
"6  c #2B2B2C",
"7  c #242B31",
"8  c #2E383E",
"9  c #333333",
"0  c #3B3B3B",
"q  c #400001",
"w  c #43000A",
"e  c #4B000C",
"r  c #490909",
"t  c #500000",
"y  c #5B0000",
"u  c #52000E",
"i  c #570010",
"p  c #5B0011",
"a  c #630000",
"s  c #6B0101",
"d  c #770000",
"f  c #7B0000",
"g  c #7E000B",
"h  c #640013",
"j  c #6A0014",
"k  c #730013",
"l  c #7C0012",
"z  c #4B2525",
"x  c #4B3939",
"c  c #553E3E",
"v  c #283D42",
"b  c #303E44",
"n  c #34454C",
"m  c #334C52",
"M  c #39545D",
"N  c #3C5760",
"B  c #3E5A62",
"V  c #444444",
"C  c #484848",
"Z  c #5E4E4E",
"A  c #505050",
"S  c gray36",
"D  c #614343",
"F  c #645555",
"G  c #405E66",
"H  c #415F68",
"J  c #44636C",
"K  c #4C6B76",
"L  c #656565",
"P  c #706565",
"I  c #7A7A7B",
"U  c #860000",
"Y  c #8A0001",
"T  c #840009",
"R  c #8A000E",
"E  c #940000",
"W  c #9C0000",
"Q  c #97000B",
"!  c #9E000A",
"~  c #830010",
"^  c #A70007",
"/  c #AC0003",
"(  c #A20009",
")  c #B30002",
"_  c #BD0002",
"`  c #C20001",
"'  c #CD0000",
"]  c #D50001",
"[  c #DC0000",
"{  c #E20000",
"}  c #EC0000",
"|  c #F50000",
" . c #FE0000",
".. c #8F771A",
"X. c #A98B19",
"o. c #BFA53B",
"O. c #F2BD00",
"+. c #D7B123",
"@. c #F7C200",
"#. c #FEC700",
"$. c #D4B543",
"%. c #C5AD55",
"&. c #CFB452",
"*. c #537681",
"=. c #5E7C87",
"-. c #5C808D",
";. c #5E8491",
":. c #628996",
">. c #6B93A3",
",. c #739EAE",
"<. c #76A2B3",
"1. c #78A5B6",
"2. c #7DABBC",
"3. c #8A8787",
"4. c gray55",
"5. c gray62",
"6. c #A4A2A2",
"7. c #ADACAC",
"8. c #BDBDBC",
"9. c #D1C69B",
"0. c #DAD4BD",
"q. c #84B5C7",
"w. c #86B6C9",
"e. c #8DBBCD",
"r. c #93B7C4",
"t. c #97C1D1",
"y. c #9CC5D4",
"u. c #A5CBD9",
"i. c #ABCFDC",
"p. c #D2D2D2",
"a. c #DDDDDD",
"s. c #E0DED8",
"d. c #ECEDEC",
"f. c #F5F4F4",
"g. c #FCFCFC",
/* pixels */
"                                                                                                                                  ",
"                                                                                                                                  ",
"                                                                                                                                  ",
"                                                                                                                                  ",
"                                                                                                                                  ",
"                                                                                                                                  ",
"                                                                                                                                  ",
"                                                                                                                                  ",
"                                                                                                                                  ",
"                                                                                                                                  ",
"                                                                                                                                  ",
"                                                                                                                                  ",
"                                                                                                                                  ",
"                                                                                                                                  ",
"                                                                                                                                  ",
"                                                          X.+...                                                                  ",
"                                                        O.#.#.@.+.a.a.                                                            ",
"                                                  I 8.%.$.$.&.9.0.f.f.f.L                                                         ",
"                                              4.d.f.f.f.f.f.f.g.g.g.f.g.f.p.                                                      ",
"                                            A f.g.g.g.g.f.d.f.g.f.6.D Z 3.6.C                                                     ",
"                                            V S P 6.p.7.c r x F z U } { W . 9                                                     ",
"                                            9 O _ W s E { | [ ] }  . . .| t &                                                     ",
"                                            . f _ ) / ) ` ] }  . . . . . ._ .                                                     ",
"                                          9 . 5 8 n n n 7 2 @ : /  . . . .| +                                                     ",
"                                        2 =.r.u.u.i.i.y.w.q.2.K o W  . . . .a 5                                                   ",
"                                      < >.u.i.i.i.i.i.i.e.w.w.;.m - }  . . .Y .                                                   ",
"                                    9 J w.i.i.i.i.i.i.i.e.w.q.*.B # `  . . .g .                                                   ",
"                                    6 >.w.t.i.i.i.i.u.t.w.w.1.J G < /  . .| k X 0 C =                                             ",
"                                    & K 2.q.w.e.e.w.q.q.w.1.K G B $ _  . .[ j X O > > ; #                                         ",
"                                    5 m J *.-.:.>.,.<.,.;.J G G N @ [  . ._ j + a  . .} -                                         ",
"                                    9 3 G G G G G G J J J G G G v > |  . .( j + a  . . .y *                                       ",
"                                      = v G G G G G B G G G G m X `  . . .R j - q ] |  .a o                                       ",
"                                        . < v m M N N N M m 4 @ )  . . .| l j - - j l ! y 6                                       ",
"                                        . f y ; + O O O O : d [  . . . .{ k j - - j j j , =                                       ",
"                                        . [  .| } { { { }  . . . . . . .] j j + - j j j w o                                       ",
"                                        . [  . . . . . . . . . . . . . ._ j j + ; j j j e .                                       ",
"                                        . [  . . . . . . . . . . . . . .^ j j + ; j j j e .                                       ",
"                                        . [  . . . . . . . . . . . . . .Q j j O : j j j e .                                       ",
"                                        . '  . . . . . . . . . . . . .| l j j O : j j j e o                                       ",
"                                        . T  . . . . . . . . . . . . .` j j j X , j j j e .                                       ",
"                                        . p (  . . . . . . . . . . .] k j j j X w h j j e .                                       ",
"                                        o u j l ' |  . . . . . .} ^ k j j j j . w j j j w o                                       ",
"                                        o e j j j ~ ^ _ _ ) ( R k j j j j j h . e j j j : 5                                       ",
"                                        . w j h j j j j j j j j j j j j j j h . e j j j - =                                       ",
"                                        % , j j j j j j j j j j j j j j j j j . i j j i .                                         ",
"                                        = : j j ; - : w e w : ; j j j j j j p . . O O . =                                         ",
"                                        9 ; j j u - X . . o % . h j j j j j p . V 0 6                                             ",
"                                        0 + j j j j h O 9     . p j j j j j p .                                                   ",
"                                        0 O j j j j j X %     . p j j j j j i .                                                   ",
"                                          X j j j j j X       . i j j j j j i .                                                   ",
"                                          . u j j j h .       . i j j j j j u .                                                   ",
"                                          6 O u h h p .       o e j j j j j u .                                                   ",
"                                            5 . . . . .       % O e i i u w O o                                                   ",
"                                                                9 . . . . o V                                                     ",
"                                                                                                                                  ",
"                                                                                                                                  ",
"                                                                                                                                  ",
"                                                                                                                                  ",
"                                                                                                                                  ",
"                                                                                                                                  ",
"                                                                                                                                  ",
"                                                                                                                                  ",
"                                                                                                                                  ",
"                                                                                                                                  ",
"                                                                                                                                  "
};
