/* XPM */
static char *_009b840cbd840ccb3e2f086e830defegiDHvqp0QjkAypXu[] = {
/* columns rows colors chars-per-pixel */
"64 64 235 2 ",
"   c #5D8700",
".  c #638D00",
"X  c #6A9600",
"o  c #6C9900",
"O  c #729A00",
"+  c #798900",
"@  c #77A200",
"#  c #7BA305",
"$  c #7DAC04",
"%  c #7EA90A",
"&  c #7BA913",
"*  c #7BB913",
"=  c #7EBB06",
"-  c #7EB42A",
";  c #779035",
":  c #BF8A18",
">  c #AD961E",
",  c #AF9B1B",
"<  c #AD9A17",
"1  c #B2951D",
"2  c #B29A1C",
"3  c #B89918",
"4  c #84AD05",
"5  c #81A60B",
"6  c #84AD0D",
"7  c #89AE0D",
"8  c #94A80F",
"9  c #85B306",
"0  c #8BB406",
"q  c #86B30D",
"w  c #8AB40D",
"e  c #8BB90C",
"r  c #87B906",
"t  c #91B40E",
"y  c #93BA0F",
"u  c #85AD13",
"i  c #8AAD13",
"p  c #86AE1C",
"a  c #8EAE1C",
"s  c #87A61C",
"d  c #95AC14",
"f  c #9AAD16",
"g  c #92AD1D",
"h  c #9BAB1A",
"j  c #96A71B",
"k  c #86B312",
"l  c #8AB413",
"z  c #84B814",
"x  c #8CB914",
"c  c #85B41A",
"v  c #8CB41A",
"b  c #8EB91A",
"n  c #91B415",
"m  c #93BB16",
"M  c #92B41B",
"N  c #9AB21A",
"B  c #92BB1B",
"V  c #9AB016",
"C  c #A0B21E",
"Z  c #A0AE19",
"A  c #AC9621",
"S  c #B39621",
"D  c #B29C21",
"F  c #BA9726",
"G  c #85AC21",
"H  c #8BAD22",
"J  c #8BA92C",
"K  c #93AC22",
"L  c #8DB322",
"P  c #8EBA23",
"I  c #88B32A",
"U  c #92B322",
"Y  c #95BD21",
"T  c #9AB926",
"R  c #92B429",
"E  c #92BB2A",
"W  c #98BE2A",
"Q  c #8FAE32",
"!  c #9AA53C",
"~  c #98B938",
"^  c #AFBD2C",
"/  c #DA9D06",
"(  c #DA970E",
")  c #D69C0C",
"_  c #DA9C0D",
"`  c #D79A06",
"'  c #C28D1C",
"]  c #C49914",
"[  c #CA971A",
"{  c #C59B1A",
"}  c #CB9A1B",
"|  c #C89B15",
" . c #D79C11",
".. c #DB9A12",
"X. c #DB991C",
"o. c #D79A17",
"O. c #C4990E",
"+. c #E09812",
"@. c #DDA00A",
"#. c #CCA01A",
"$. c #DFA615",
"%. c #EBAC0C",
"&. c #E6A70B",
"*. c #F1AD0B",
"=. c #F6AE02",
"-. c #E6B20D",
";. c #ECB20C",
":. c #E9B605",
">. c #F2B50C",
",. c #F4BA0C",
"<. c #ECAE12",
"1. c #EDAE1A",
"2. c #E8A915",
"3. c #F1AD14",
"4. c #F0AF1B",
"5. c #ECB112",
"6. c #E3B31B",
"7. c #EBB11C",
"8. c #EDBB1B",
"9. c #F1B313",
"0. c #F4BB14",
"q. c #FDBC14",
"w. c #F4B31B",
"e. c #F4BB1A",
"r. c #FCBB1C",
"t. c #FAB616",
"y. c #C79A21",
"u. c #D09D20",
"i. c #D9A724",
"p. c #DBA922",
"a. c #D9A726",
"s. c #CDAB2F",
"d. c #ECAC24",
"f. c #E6AC27",
"g. c #F1AE22",
"h. c #ECB122",
"j. c #E9B926",
"k. c #E5B62B",
"l. c #EBB42D",
"z. c #E6B92C",
"x. c #E8B827",
"c. c #FABD22",
"v. c #F6BC26",
"b. c #EFAE30",
"n. c #E5B933",
"m. c #E9B631",
"M. c #F0B631",
"N. c #95C11F",
"B. c #92C017",
"V. c #87C10B",
"C. c #93C123",
"Z. c #9BC323",
"A. c #9EC929",
"S. c #99CA26",
"D. c #9DC737",
"F. c #A4CA2B",
"G. c #A8D238",
"H. c #A9D22B",
"J. c #EFC00E",
"K. c #F3C20D",
"L. c #EFC312",
"P. c #F4C215",
"I. c #FAC314",
"U. c #F4C21A",
"Y. c #FCC21D",
"T. c #EDC12D",
"R. c #EDC225",
"E. c #F7C524",
"W. c #F3C838",
"Q. c #ECC539",
"!. c #909E4A",
"~. c #8DA544",
"^. c #8EA84B",
"/. c #8BA947",
"(. c #92A44B",
"). c #9AA84C",
"_. c #8CA454",
"`. c #8EA559",
"'. c #8CAA54",
"]. c #95A653",
"[. c #97B551",
"{. c #A1BE45",
"}. c #A4BB60",
"|. c #DCB94B",
" X c #C2B744",
".X c #E3B847",
"XX c #B2CE5D",
"oX c #A9C944",
"OX c #BFD96B",
"+X c #ECCB4E",
"@X c #E5C547",
"#X c #EAC656",
"$X c #F2CA56",
"%X c #FFD55F",
"&X c #F5D54D",
"*X c #CAF05F",
"=X c #E8CB6B",
"-X c #EED667",
";X c #F1DA65",
":X c #F3D66C",
">X c #F4D96D",
",X c #FBD766",
"<X c #F5DB73",
"1X c #F9DC75",
"2X c #F4DB7C",
"3X c #F3D675",
"4X c #E6D176",
"5X c #D9FF67",
"6X c #DCFF71",
"7X c #FFE665",
"8X c #F9E577",
"9X c #F6FF7D",
"0X c #ECD88D",
"qX c #FFEC8F",
"wX c #E9FA8E",
"eX c #FAF98B",
"rX c #EEFF98",
"tX c #FCF594",
"yX c #FEFE95",
"uX c #F5FF9E",
"iX c #FFFF9C",
"pX c #F6FC92",
"aX c #F3DFA0",
"sX c #FEECA2",
"dX c #FFFFA3",
"fX c #F5FFA9",
"gX c #FEFFAA",
"hX c #FFF1AB",
"jX c #FFFFB1",
"kX c #FFFFBD",
"lX c #FFF7BE",
"zX c #FEF5C4",
"xX c #FFFDD1",
"cX c #FFFBD6",
"vX c #FFFCE6",
/* pixels */
"w q r r 9 q v k k w z l k b q w w n l 9 e r * I Q _.).).!.}.[././.^.~._.; ~.! ! ^.~.I Y 6 m w q k w z e w k l l l w l w l z l l ",
"w w 9 r q k b v v k v c k k w x A.B 7 w e 9 * I gXsXtXeXeXiXeXeXeXeXyXyXwXeXeXeXgXfXI & 7 w w k q z e l l w l l l l l l l l l l ",
"l n x l l b W R G s R R u Z.e w z c k n e 0 e h  XF 3 u.[ X.O.| ] | { { D y.] s.2XdXH c B q l v l w l l w l l l l k l l l l l l ",
"i l l l l v U H ~ rX~ I U x w w z b v l 4 e n 8 D ' f.1.&.*.&.%.&.3.2.f.m.k.$.n.2XiXU z 4 b z k l l l l l l l l l l w l l l l l ",
"l i l U M l a H Q uXoX~ a 6 m n q z c v w n 4 + , { 6.5.&.>.;.:.=.*.d.f.,Xa.h.m.1XtXg B.x A.Y v l l k l l l l l l l l l l l k l ",
"M M M T N n n M J uXwXoXa n w w m l u c n n M d , 3 7.0.>.>.>.:.>.5.n.-XqX|.z.n.:XiXj w 6 k k l k l l l l l l l l l w l l l w l ",
"i i g n y w w i a R s U M 6 B w q z l M M i a h D y.T.E.c.c.e.e.e.Q.=XhXzX0X@X@X2XdXj w M l w q l k l l l l v l k l l l l e l w ",
"l l l l w 0 t w M k a v l n 4 n e m l u v v M h > u.v.0.t.r.E.c.W.,XsXcXvXxX8X+X2XdXj n i w e x l v l l l l l l w l l k w l w l ",
"x w q e l l q k w w e l l k x l 0 e b i k i B ^ 2 #.r.q.q.q.q.E.&X8XjXcXvXxXeX7X0XdXg 6 l k e q x k   % v l k k l w l b w 6 l e ",
"6 x x q q v B v l 9 q w l x l l 9 9 6 x B v i f 3 } r.q.q.q.,.P.U.@X=XlXxXaX|.Q.3XdXa k k w w q i B v l 6 B u x l z B B l b x w ",
"w w 9 q P U &   l q B.k A.l l w y e x k u k l f < #.e.I.q.K.J.P.P.T.n.3XtX#Xz.Q.3XdXH z z l l w l b 6 B B l l 6 B l x l u q 6 B ",
"9 e x k c G E D.v k q q b k q l 6 w v b l w z N < #.E.q.I.,.L.L.,.U.T.m.7Xk.U.T.>XdXv z w l l n 6 l B x u l B b l B v x x l l l ",
"z q q z c v G L c k Y l G.l z l m q k C.B 6 6 f 2 #.v.r.r.r.e.P.K.K.J.U.E.P.0.R.;XiXL z z l k v B l 6 x v 6 x 6 k A.M k k l B 6 ",
"w w z l v l v c b c 6 q z l w b 6 x B v w w e f 3 u.v.c.r.r.q.U.I.K.,.I.P.I.I.E.;XiXL b k x k l u x u A.x   u B x B l x v 6 v l ",
"i x n l w e 9 9 l k b l m w l k . u b z % x e 8 3 u.v.r.t.q.0.P.P.e.Y.e.r.E.Y.j.;XyXv B d M k l l l B m u 6 l l i u u k k x x l ",
"k x k l e 0 e e w l w z q w l l i c c b x q q f 2 [ v.t.t.0.,.0.e.w.t.e.e.5.e.T.;XyXK v i M k l l k 4 l x l x l v k a . . k v i ",
"l n 6 l l e 9 b w l k l w w l w l l i l x w e N 2 [ 1.%.<.%.;.;.5.<.3.5.5.5.9.j.:XiXK c v u o @ w w e e w l l l k v c i l l l w ",
"i x l C.l z w z l l l z l l l l q l n u 7 b b N 2 } h.3.<.9.5.5.<.;.5.5.5.5.5.j.:XdXM k v v % w w w w w w w l l k v v v l l e w ",
"l w m F.6 l l w w l l w l l l l z l n n z q q V 2 [ 1.3.<.5.9.5.5.<.5.%.<.;.5.j.:XiXa l c M z l l l l l w l l l l l l k l l l w ",
"b 6 6 q o # 6 x i l l l l l w l l q i n e q w N 2 [ 7.<.<.5.<.5.5.5.<.5.<.<.0.j.:XiXg x k v q q l l l i l l l l l l l l l k l l ",
"k k B m l 7 7 w t l 7 l l l l z w l M n w z x 8 2 [ 1.%.<.5.%.5.<.<.<.<.%.5.;.j.:XiXa b k M l w c v k c l l l w w w w w l l k v ",
"k w l 6 n 7 i n i l n l l e z l l u n M l e z 8 2 [ h.<.<.5.5.-.5.5.<.5.5.5.5.j.>XiXd z i k b q k l v l l v l l w e w e l l v v ",
"w k l n n n n d d w d w l l k z q @ 5 n w q e N 2 [ 7.<.<.5.5.5.<.5.<.9.5.<.0.j.>XiXa w l l q q l l k l c c x l w w e w w l k v ",
"z z l l 7 l n w n n l n l w k w z 6 l M w e z 8 2 [ h.%.<.<.<.5.7.5.<.3.5.5.;.j.:XiXi z l z x q w w l z l k k l w e w e l l k v ",
"l q z l l d w n H.B m n l l w k l l l n e w w V , [ 7.<.<.<.<.;.<.5.<.<.<.5.0.x.:XiXi z l l w r e 4 e x i k x l x w 7 l x w k k ",
"k l l l n 7 d l ^ m n l l l k z w l l d l z l d 2 [ h.%.<.5.5.5.<.<.9.<.<.5.;.x.-XiXM B v n w e 0 e e 4 m l B l Z.B k l w w l m ",
"l l e l l n w n m d 7 7 l l k l l l l g x 9 q d 2 } 7.3.<.5.;.5.5.7.<.<.5.5.>.j.>XiXi l x l l q 0 x 4 H.w w l l B v x k l q w l ",
"k l l l w n l l l t l l l k w l x x n l w e z V 2 [ h.%.<.5.5.5.<.5.<.<.%.5.5.x.:XdXa k i u q l 6 l n w l w l l i k l l l w w w ",
"l w l w l l l l l l l n l l l l x x n d l w z V 2 [ h.<.<.<.5.5.<.5.<.9.5.5.0.x.:XiXa l U k l k U E i M n t t 0 n l k v k l l w ",
"l l l l l l l k 7 l l z e l l l l l i n z w q d 2 [ 1.<.<.<.<.5.<.<.<.<.5.5.5.x.<XdXa q v u k c J Q J i n y 4 y w l v k c l w w ",
"l l l l k k k l q k k k l l w l q l l M l w q d 2 [ 1.<.<.<.<.5.<.5.5.9.%.<.0.x.-XdXT k 5 O 6 U XXdXJ H n 7 0 0 4 l v v c x k k ",
"w l w l l l l z l k w k l l k l l l l i w l z V 2 [ d.3.<.5.5.5.<.5.<.<.5.<.9.k.>XiXa k U u x c fXOX{.R n t 0 0 t l v l i l x z ",
"t w 7 Z.c u b l l x 9 x l 6 z b l l l n l w z d D y.d.4.4.<.4.4.1.7.4.w.w.<.5.m.>XiXg l v x l k ~ pXL L # M w w l w k l l l l l ",
"e l B Y a P u v l l e l b l P b k l l l l l k V > ' X..._ / _ _ _ / +./ _ / &.p.:XiXv l B B z l v c p v c k B l w l e l l l l k ",
"w w i P u U p v l 6 X w 4 B % & k l l l n l k d > ' X.( _ / ( _ _ _ _ _ / / _ p.:XiXv k M x l z v E G.a B v 4 l l w l w w l l l ",
"l M c 5 pXL L i x l 9 l w l v b z l l w i l l d 2 ' X._ _ _ ( .._ _ _ _ / / _ p.>XiXa k l w l k v v u c k v l l w l e l l l l l ",
"v c v 6X6XH P p k n x w l 4 b l k l l l l l l d D ' o._  .) _ ) _ _ ...._ ` / i.1XiXa k l l w z k k u Y v 6 N.4 l l z w l l l l ",
"k U v U *Xp u P v B 6 e w B z k l z l w e l l d D ' X...@./ .._ .........._ / i.<XiXU l x l w w   U x 6 l w w x w e e l l k l l ",
"6 v M a M U c v l l m w w 4 z k z k w l n l k d A : o...) ) ...._ ......_ _ _ a.:XiXK k l l k z # l q l l B q l l w l w l z l l ",
"M 7 c k c a k v l b % m q x l l l w l e l l k d A : X...#.@... ........._ _ _ a.1XdXv l l i w z l b l l l w w x w l w l l l l l ",
"e l w l i l l l A.x i l l l k v z w e 7 l n w N A : u.+.( .. ... ........._ @.a.8XiXa l l l l w l w w l z w q w w l e l l 7 k k ",
"w w w t l l l l x l w l l q k k l z l w n M % d A ' u.+...)  . .....o..._ _ _ a.<XiXa k l l w q w w l w e w l l e l z l w l x M ",
"w 0 e w w w l l 6 l M l l k k k z q w l l n l N S ' X.( ) )  ...( ..X.( _ _ _ a.<XdXU z l x x q z e e l 7 w x q l l l l v k k x ",
"w w w w t w l w l l x x k l x l b k l n n i n d S ' X.+. .) .. ...( X..._ _ _ a.:XiXU l l l q q l w x l q l m w l l l l M l k i ",
"w w w w w w w l l i l c k k w l . b q l V 7 x h S ' X.+. .@.@..........._ ( / a.1XiXT b v m x z l w x l i m N.b x v k k b l k k ",
"d l l l w l e l x 6 k x x w w l X 6 i l 9XN 5 N 1 ' X.+. .)  ._ _ ......_ ( @.a.<XiXM l l l w q l w x k l x B l l k l l q l v l ",
"k l l l l l l l l k k x l l z 9 6 v B ^ M d B h S ' X...) @._ ........_ _ / _ a.<XiXa z l l l w l l l l k k k l l i v B q 6 m l ",
"l v v n i l k l l l v l q w e w v k k M d n 6 h S ' X..... ..._ _ _ ...._ / _ a.<XiXa k l w w w w l l l l l l v l l A.F.x l b 6 ",
"v x k i k v l l l l l l w w l l v v v c k l l h S ' o.( +.+._ _ _ +....._ _ ) i.1XiXv k e w e 9 e l u x l l Y n l i l x 6 v l l ",
"i l l x x k l n w l l l l k w l l d c u q k x h F ' X.( .._ _ _ _ ( ..( ( _ @.i.-XiXL k l i w w i w k x i k Y B u Y l u M l w l ",
"l k k M l l l w l l l l l l l e t t n z x q l f > : .._ ( ( )  .) ) .._ ( _ &.p.-XiXv c M g M a l l v x i l M 5 n 6 k B l u b w ",
"b l l v v k x l l l w l w l l w t w 7 k r q 9 Z 3 u.d.<.1.1.1.6.6.5.7.1.1.3.w.m.;XyXK k v g H v v l l k l x u O F.6 B i 6 B l q ",
"l k l l l l l l l l l l l l w w 4 w B S.S.b w d 2 [ 7.;.5.5.<.5.5.-.5.7.<.<.5.j.:XiXv c c v k k l l i k M B l # 9X6 6 M l l l l ",
"w v b l l k k l l l w l l l l w e w z z z c k h , [ 6.;.5.5.<.;.;.;.;.5.>.;.7.m.:XiXL % l x l k l x k l l l x i % i x l b 6 6 b ",
"v Z.b l v v l x l l l k l l w w e l l v z v g h 2 [ 1.%.3.3.3.3.;.%.;.>.*.*.w.M.:XiXU l l w e z q x k l l i l v v B i l l l b w ",
"l b # O q x w l k w l w l l l w e l l c c v v h 1 [ 2.;.<.9.3.<.3.5.3.<.%.<.3.b.:XuX^ x w w e z l l i k M l k l k l l x 6 b 6 l ",
"l u x B x l l l b l l k w l w w t e l x k v d h 2 { 6.-.7.<.1.7.2.5.6.5.5.5.7.l.:XiXM 4 n M 6X& k w k l W l k x k M i l v l l l ",
"x v l u 6 v n 6 x l l w l l l w 9 w l z x l 7 f D { 6.-.<.5.5.<.7.6.5.5.-.-.5.m.:XiXi 4 B i P c v l v k B l i u i l x i l x l l ",
"u l x x x k l x l x l l w l w k z z c C.N.x e Z , { 6.@.<.<.*.%.1.4.<.;.:.:.-.z.1XiXv b u z & c k k l i i l i # Y l B l u x l w ",
"v x 6 i v k l x l l w l l l l k b c z b b w w h , u.k.5.7.1.w.w.g.d.5.5.-.-.8.n.2XgXH 6 l B x z q l x x l n l 6 5XB 5 x B l 6 v ",
"x Z.B l k l l l l l l q l l e k c a v i 7 w w f A 1 a.k.m.b.d.d.b.b.h.h.6.6.j..X0XgXK x n 0 w z x k k l u l M M l 6 B l 4 b l l ",
"6 B k k x k l l l l l l l l l l g M v l e l x K qX=X#X#X#X#X#X$X$X$X+X+X+X+X$X=XhXfXR l 7 n g c k 7 k l l l k l Y i M l k v l l ",
"M 6 . O l k l l w k l l l l w w i w l 9 r 9 * I gXgXgXgXjXjXgXgXdXdXdXgXgXhXgXjXkXfXC.$ n M J Q p l B M T x l l 6 i M l l l l w ",
"u B 6 k B q l l l l q l l l w l t t e r r = * I ^.].]._._._.`.'.^.^._.`.`._.].].`./.* V.i s wXrXH l x u B i l x b v l k l k l l "
};
