/* XPM */
static char *_64e00d7a6a0476ea9ef64cae88520f1NTAQDmW6NpRe8W0Y[] = {
/* columns rows colors chars-per-pixel */
"65 65 249 2 ",
"   c None",
".  c #B27D2C",
"X  c #C58A06",
"o  c #CD920B",
"O  c #CA9704",
"+  c #D59B05",
"@  c #DA9D06",
"#  c #D49D0A",
"$  c #DA9C0C",
"%  c #D7950C",
"&  c #CB8D1A",
"*  c #CB9514",
"=  c #D39C15",
"-  c #DA9C13",
";  c #DB9D1A",
":  c #D68F03",
">  c #E29809",
",  c #E59817",
"<  c #F59503",
"1  c #CDA300",
"2  c #DAA305",
"3  c #D4A30C",
"4  c #DCA10C",
"5  c #DDAC06",
"6  c #D7A213",
"7  c #DBA213",
"8  c #DCA41C",
"9  c #DAA819",
"0  c #DBB317",
"q  c #DCB108",
"w  c #E1A40C",
"e  c #E4A90D",
"r  c #E7AD07",
"t  c #E4B40B",
"y  c #EDB50C",
"u  c #EDBC0D",
"i  c #E5B706",
"p  c #F3BD06",
"a  c #F9BC05",
"s  c #F2B60E",
"d  c #F4BD0D",
"f  c #FBBD0C",
"g  c #FCB20A",
"h  c #E1A114",
"j  c #E5AB12",
"k  c #EBAE14",
"l  c #E2A41A",
"z  c #EBAB1B",
"x  c #E6A81B",
"c  c #F7AD19",
"v  c #E5B413",
"b  c #EDB414",
"n  c #E6BC14",
"m  c #EDBB14",
"M  c #EEB319",
"N  c #EDBD1A",
"B  c #E6B919",
"V  c #F3B515",
"C  c #F6BF14",
"Z  c #FABE14",
"A  c #F2B31A",
"S  c #F5BD1A",
"D  c #FABD1A",
"F  c #FFB616",
"G  c #D08F25",
"H  c #DA9925",
"J  c #E4992A",
"K  c #D7A725",
"L  c #DBAA32",
"P  c #D7AE34",
"I  c #D3B72D",
"U  c #E9B921",
"Y  c #F5BB23",
"T  c #FABC22",
"R  c #F9B626",
"E  c #E3B533",
"W  c #F9BA31",
"Q  c #EFA72A",
"!  c #EDCC04",
"~  c #ECC30C",
"^  c #E8C607",
"/  c #F4C205",
"(  c #FAC305",
")  c #FDCC05",
"_  c #F5C10C",
"`  c #FBC30D",
"'  c #F4CA0C",
"]  c #FDCA0D",
"[  c #F4C802",
"{  c #E5D200",
"}  c #FCDB06",
"|  c #F3D20B",
" . c #FDD50C",
".. c #F5DE0D",
"X. c #FCDD0D",
"o. c #F2D706",
"O. c #EAC214",
"+. c #EBC31A",
"@. c #E7C814",
"#. c #F5C114",
"$. c #FBC314",
"%. c #F5CB14",
"&. c #FCCB14",
"*. c #F4C21B",
"=. c #FCC41A",
"-. c #F4CB1C",
";. c #FCCA1B",
":. c #F5D313",
">. c #FCD314",
",. c #F3DC12",
"<. c #FCDD13",
"1. c #F6D31B",
"2. c #FCD41A",
"3. c #F5DB19",
"4. c #FDDD1B",
"5. c #EDD214",
"6. c #FDE405",
"7. c #F5E30D",
"8. c #FCE30D",
"9. c #FAEB0B",
"0. c #F8E907",
"q. c #F6E412",
"w. c #FDE314",
"e. c #F5E21A",
"r. c #FCE21B",
"t. c #F8EB14",
"y. c #EFE718",
"u. c #DAC435",
"i. c #EDC827",
"p. c #F4C322",
"a. c #FCC423",
"s. c #F5C924",
"d. c #FBCB23",
"f. c #F4C42C",
"g. c #FCC52B",
"h. c #F6CB28",
"j. c #FBCE2C",
"k. c #FBD224",
"l. c #F4DA22",
"z. c #FDDC23",
"x. c #F6D12C",
"c. c #FDDB2B",
"v. c #F6D428",
"b. c #EBC937",
"n. c #FCCB32",
"m. c #F6C734",
"M. c #FDD334",
"N. c #FCDC34",
"B. c #F4D43B",
"V. c #FBD53C",
"C. c #FCDB3C",
"Z. c #F5D434",
"A. c #EED62E",
"S. c #F5E422",
"D. c #FDE223",
"F. c #FBE52C",
"G. c #FCE828",
"H. c #FCE434",
"J. c #FEE33D",
"K. c #F7E73A",
"L. c #A48F5D",
"P. c #9D9567",
"I. c #B4AF67",
"U. c #D3A549",
"Y. c #DFBB5E",
"T. c #DAB642",
"R. c #FBBE48",
"E. c #E5B74F",
"W. c #D5BC6A",
"Q. c #E2BD65",
"!. c #FDD444",
"~. c #FDDC43",
"^. c #FCD349",
"/. c #FDDC4B",
"(. c #F6D544",
"). c #F7CF5D",
"_. c #FFD553",
"`. c #FEDE53",
"'. c #FDDC5C",
"]. c #F3D759",
"[. c #F1D44A",
"{. c #FDE444",
"}. c #FCE943",
"|. c #FEE34A",
" X c #FBEB4D",
".X c #F5E847",
"XX c #FDE354",
"oX c #FFE954",
"OX c #FDE45B",
"+X c #FBEA5C",
"@X c #F4EA5B",
"#X c #DEC774",
"$X c #E7C46B",
"%X c #FDDE63",
"&X c #E9C378",
"*X c #EFDF7B",
"=X c #F5D977",
"-X c #FCE563",
";X c #FBEA64",
":X c #FCE56C",
">X c #FDEA6B",
",X c #F4E966",
"<X c #FCE472",
"1X c #F9ED7D",
"2X c #FAEA77",
"3X c #FAF370",
"4X c #AF978E",
"5X c #B4A79B",
"6X c #BBB3AA",
"7X c #C0BAA2",
"8X c #F7D786",
"9X c #E3CC97",
"0X c #F2CA91",
"qX c #F5D498",
"wX c #EBD08A",
"eX c #FBEE83",
"rX c #F9F184",
"tX c #FBE895",
"yX c #FDF19F",
"uX c #FBF298",
"iX c #EBD5A6",
"pX c #EDDDA6",
"aX c #F4DAB3",
"sX c #FAE9A7",
"dX c #FCF1A4",
"fX c #FDF2AA",
"gX c #F6F8A5",
"hX c #FBF4B4",
"jX c #F9F3BA",
"kX c #F2E7AD",
"lX c #FBE7C5",
"zX c #FBF2C4",
"xX c #FCF3CD",
"cX c #F9F4CB",
"vX c #FCF2D3",
"bX c #F8F6DA",
"nX c #FAE8DB",
"mX c #EBFAE7",
"MX c #FDFCE5",
"NX c #FEF5EB",
"BX c #FCFCEC",
"VX c #F8F8E5",
"CX c #FEF4F3",
"ZX c #F4FBF5",
"AX c #FCFDF4",
"SX c #FDF3FF",
"DX c #F7FEFB",
"FX c #FCFBFC",
"GX c #EBF4FE",
/* pixels */
"                                                      jXuXrXeXeX1X1X1XuXdXzX                                                      ",
"                                            vX3X;XOX'.'._.d.-.;.-.#.k.c.H.~.{.{.:XyXbX                                            ",
"                                      I.eX>X|.~.d.;.$.$.` ` $.$.$.` 2.r.w.4.2.$.$.;.N.+X2X                                        ",
"                                  bXuX-XXXV.d.*.=.$.$.$.=.=.=.=.=.2.8.8.8. .&.=.$.2.r.z.c. XfX                                    ",
"                              NX3XXX`.d.;.$.&.$.&.$.$.$.;.&.$.&.>.w.r.r.2.Z D =.>.w.8.w.8.6.r.H.gX                                ",
"                            eX>X|.k.$.=.` ` $.$.$.$.$.=.=.$.$.2.r.r.4.4.#.` ` &.w.7.X.7.r.D.4.8.<..XkX                            ",
"                          eX X~.=.f =.$.$.;.=.=.;.D D V k l - $ 3 3 2 w k D ;.z.r.w.r.w.w.X.w.r.w.4.S.sX                          ",
"                      gX@X{.;.` =.Z =.&.$.=.D r @ $ $ h z C C C C C $.C C y e @ r %.4.w.r.q.8.w.9.w.8.q.}.                        ",
"                    yX:X~.a.$.$.$.&.` ` C e % ; M A S $.C C C C C C f #.C C C D C t t B 1.w.8.r.w.4.r.6.e.D.5X                    ",
"                  hX>X!.] a.$.$.$.$.Z x - + j C S Z C d p C $.C C C C C C C C s C T D V 5 %.r.w.w.4.w.w.w.q.#.                    ",
"                fX+X(.] g.( ;.&.=.k $ + V =.Z C $.$.$.S S C C C C C C C C $.C C $.$.d ` C Y t ' w.9.w.e.4.s.&.C 4X                ",
"              hX|.~.;.$.] =.$.D w % z C Z d C D C C d C $.C C Z $.C C C C C C #.C C S S C ` #.S ;.<.w.<.] $.` &.l.                ",
"            xX;X_.=.$.a.] $.T 4 @ b C C C C $.C *.#.~ _ C Z F ~ S D $.#.C C f C C C C C C S C C m ;.2.;.=.Z &.<.e.A.              ",
"          cX3X%X&.=.$.$.$.A @ 2 S C C C C C C C f C C C C #.p.C.N.a.*.$.s C C C C C C $.C $.C C D C d $.=.&.4.w.8.8.qX            ",
"          1X-X&.=.` $.] D - j A C d D S Z #.C C a Z S C #.m ^.A.-.s.v C C C C C $.C C C C C C C C #._ -.;.X.w.w.w.8.5.9X          ",
"        xX-X!.d ;.$.;.#.> $ S $.C $.Z #.Z C C C C S S C C Z /.-.>.2.4 $.C d C C C C C C C C C $.C #.m C k.w.9.<.r.w.t.b.          ",
"        2X{.#.$.#.=.=.h $ T d d =.C $.C C C C C W N #.#.C d |.| X.:.- *.s C Z C C C C C C C C C F Z Z s =.c.w.w.r.8.] *.qX        ",
"      vX Xs.;.` $.#.k - k $.Z C C C $.U d $.m C 2X#.C u a +.C.3.<.3.7 S O.S C $.s =.C C C $.C C C C Z Z C a.D.q.X.l.$.` c         ",
"    6XrX{.=.$.$.=.C @ z =.s C C C C C g.C A D #.MX).a D *.p.C.4.<.:.4 ` f $.S N s d C C C C C C C C $.C C C A.<.4.] ] C  .iX      ",
"    fX}.s.$.$.` ;.w h S _ C C #.C C Z c ! / S jXMXbXOXXXC.C.J.z.<.>.].OX'.OXXXc.a.Z d =.C C C C C C C C C =.#.l.;.] $.&.y.0 6X    ",
"    2X~.D &.&.=.M % b Z d C #.Z C C $.D W 8XbXNXFXZXVXvX.X4.e.<.<.<.<.<.<.4.4.<.U v d #.C C C $.#.Z C C C $.d !.;.=.:.X.l.! &X    ",
"  vX:Xh.=.$.$.=.w h C $.$.C Z C C C C ^ _ F ^.mXSXCX2Xr.7.8.8.<.<.<. .} <.<.<.6.9 3 d C C C C C C C Z #.C d *.j.B.) w.7.F.r.P     ",
"  rX'.&.` =.` D - y C C C C Z C C Z C F *.V !.%XZX@X<.-.B O.O.O.O.O.O.O.O.O.n B X 7 $.$.C $.C C Z Z #.C Z C T #.V.q.w.r.q.<.+.bX  ",
"  3Xj.&.$.$.$.w x S C C C C #.C C #.$.f N ~ XX%.rX{ = O ; 7 7 7 7 7 - 7 7 - 7 6 v S $.C C C C C #.C C Z C C C C j.F.w.w.w.<.1.9X  ",
"NX+X%.=.$.$.=.+ k D C C $.C C C Z Z C $.u v.!.&.XXO G i ( #.$.#.$.#.` $.$.` =.=.;.d C C C C $.C Z C C #.C C s D -.|.q.w.w.r.<.U.  ",
"jXOX` $.` ` D $ f S C #.S Z C C C #.C ^ f ^.z.X.X.X C p W _ ` _ _ _ _ d d _ ` #.#.$.C C C C C C C #.Z Z C Z ` D #.%X4.X.w.w.X.+   ",
"dX/.$.$.] $.z w C $.C C C #.C Z Z C C N C B...<.2.o S _ C C #.C #.C Z C C C C C C S #.C C C C C #.Z C C C C f D #.`.D.6.r.<.w.3   ",
"eXM.$.$.` $.x y C $.C C C Z #.C C C C D #.(.o.4.2.# D d S Z C D Z D d _ #._ #.m C C C C C C C C C C C C C C f Z N M.F.8.r.w.w.0 lX",
">Xd.$.$.$.$., y Z f #.Z C C Z #.C C C C C n.<.<.<.q _ $.C S C #.O.#.S D D D D Z Z C C C C $.C C C C C #.C C Z D C j.H.8.r.w.w.n pX",
"-X;.$.$.$.d $ Z D d C Z #.C C #.Z C C D C p.D.4.:.4.%.m S Z Z f $.f d d _ ~ C Z $.#.C C C S C C #.Z C Z C #.$.C C a.J.8.q.w.<.*.qX",
"OX-.$.$.` d $ D D d C C Z #.Z Z C #.Z *.C C c.4.r.<.4.k.-.j.n.n.j.n.g.g.g.=.D S S C #.Z C C $.C C C C $.C C =.C #.;.}.w.w.<.>.S &X",
"XX#.=.` $.C - =.C #.Z #.C C C C C C C C C C #.z.X.w.<.| z.X.<.2.&.$.;.2.4.D.z.c.O.T C #.C C C C C C C C C C S C $.=.}.q.4.>._ R $X",
"oX&.=.] 2.-.% $.S $.#.C Z C C $.C C C C $.#.d ;.<.X.<.w.X.<.>.;.$.=.>.X.<...<.:.-.C C C C C C C #.C #.D #.C S $.Z =.{.w.>.] $.A $X",
"'.$.#.>.4.%.$ =.S C Z Z #.C C S C C C C D #.C C u 2.4.e.<.<.>.` &.&.<.<.X.w...<.&.p C C Z C Z C Z C C C C C #.C C *.{.>.$.` $.A $X",
"OX_ 4.w.4.2.4 C C Z #.C C Z C C C C C D C C $.C =.b q t O.v j k k M n y ~ 1.4.;.$.#.@ *.#.Z #.#.C C #.Z C C S C C j.~.` =.&.$.k $X",
">X>.r.7.r.-.$ $.S Z Z C C #.C C #.Z C #.C C S C Z =.S S b b b b b y b M b _ ] #.#.&.5 C C C C Z C $.C C C C #.f C M.V.` =.` $.z wX",
">Xt.q.8.2.$.# g.` T C C C C C C C C Z C C C $.C C C C C C C C C C C _ C #.$.*.a.:.<.a.b Z C C C C C Z C #.C C D ( [.B.] $.=.$.< iX",
"1Xr.X.X.=.$.w T ( S C C C C $.C Z #.#.C C Z C C C C #.Z C Z #.Z C #.C C C C =.V.X.z.-.e D C C C C C C #.C D V C #.OXj.$.$.$.#.< lX",
"yXc.2.$.=.$.m Y y =.C C C C C Z C C Z C C #.C C #.Z C C C $.C $.#.Z C Z Z C d `.} <.! e $.C C C Z Z #.Z C Z C p i.;Xd.$.` $.` :   ",
"jXc.&.` =.&.;.e C *.C #.C $.C #.C Z #.C C Z #.Z C C #.Z C C C C C C C Z $.#.#.XX,.8.i h $.d C #.#.C C C C $.$.d B.oX;.$.` &.A =   ",
"MXC.$.#.2.8.4.4 C S C C #.Z C C $.C C C C S $.C #.C C C C C #.C $.C C $.Z *.B.N.7.k.% b Z C C #.C C C Z C C a.Z `.C.$.$.` =.k E   ",
"  oXT >.4.w.w.q D f Z C C C C Z C C C C S D / p.d.*.*.s.*.a.a.*.s.Y ;.s.s.C.|.l.w.N o D _ Y / m D C #.$.D _ S d.,Xd.a ` $.$.h qX  ",
"  tX>.w.4.r.8.j.y D C C $.C C #.C C $.S d C f./.|.|.|.|.|.}.{.{.C.J.^.|.{.K.l.w.2.* # D C D S *.W d =.( C d C ^.XXm ] ;.=.c - lX  ",
"  VXG.8.e.8.w.4.t #.C C C C C C C C C C S / /.A.,.X.<.<.<.<.&.=.Z $.<.<. . .<.k.* O m #.C ` R C 8Xd R [ m $.*.,XM.;.=.=.$.e L     ",
"    @X<.y.7.w.8.n m Z C C #.Z C C C C S $./ V.z.w.<.e.w.w.&.#.$.;.2.X.q.<.5.v O = M #.#.C ( #.C xX#.D / C C V.OXa.&.$.%.D # &X    ",
"    dX4.9.D.w.w.| B C C C C C C C C C T p Y &.q h l , 7 l - c =.>.3.- 6 = & & 4 _ Y S C S C p i.DXb.` u ` h.oXB.$.` ` ] c K 5X    ",
"    7XoX4.r.8.N.6.1.C C =.y $.C C C C $.C Z *.A y y m y y N ^.w.w.2.; Y Y S S S _ / / D p D f 8XmXsXp.C %.%X|.( $.&.Z $.- 0X      ",
"      hXX.4.6.r.8.D.i =.V =.C C C $.C C C $.C #.#.#._ d C #.C.X.<.2.@ #.C C ` C Y R D D C R m.cXSXMX=Xa (. XB.$.=.$.;.V O         ",
"        K.9.r.6.w.w.r.y a.s #.C C C C C C C C d C Z Z $.Z C /.X.X.>.7 $.=.C C D [ ! { A ~ i.NXZXAXDXCX=X<X(.;.) ) ) ` H &X        ",
"        cXD.<.D.w.6.<.4.u $.C C C C C C C C D C C C C C Z $./.<.r.>.7 C C S C d a a T ].jXBXZXSXAXFXBXAXvX2Xj.( _ m., L           ",
"          +X0.r.X.r.w.r.%.C D Z C C C $.#.C C C C C C C C C Z.2.1.t 7 #.C C C C *.].tXnXNXSXAXAXAXAXFXDXZXmXtX=Xj.V = #X          ",
"          xXD.r.r.q.w.<.&.C C *.=.C C Z C *.C C C Z C C #.#.S 9 X X k S p C C $.` s b +.(.xXDXBXBXFXFXVX%X*.f | r @ $X            ",
"            bX9.X.D.<.$.Z &.2.;.N S Z Z d C #.#.C C C C C Z $.C C C D C C $.S S S D D R._ V 8XFXFXAXlX&.T Z i.g 4 Q               ",
"              tX6.D.&.$.=.&.4.z.d.*.C #.C C #.S #.Z C C C C C #.p d C C Z Z C *.C D d p _ W }.bXDXNX^.$.2.#.D w H                 ",
"                ;XB $.$.&.<.w.w.r.c.s.*.C C $.S C C C $.C =.$.D T T C C C C C ` ( p u R.V.,X/.:XBX=XC g.-.#.@ 7 P.                ",
"                  sX;.| X.q.w.7.w.w.e.N.h.N #.S C C Z Z D S D $.C C C C C Z C Z m i.V.oX+XV.$.` GX%.` ^ F - H                     ",
"                    ).<.t.q.<.r.<.4.4.f.V.M.j.#.#.*.C C Z C $.C m C Z Z C *.+.s.~.`.-XB.j.*.=.$.jX@.] V , H L.                    ",
"                      wX .w.w.8.0.} ] ) d -.F.{./.V.h.-.O.a p p / _ Y f.V./.-X:X`.N.' ` &.&.` $.).` R o 8                         ",
"                          @.<.t.k.p.$.C } 8.z.w.q.S.H.{.|.-XOX-X-X:X|.|.^.B.j.&.$.$.$.=.$.$.&.$.T @ + Y.                          ",
"                            B.5.' ;.$.>.<.<.8.w.r.w.8.6.9.r.r.r.z.2.s.s.#.$.$.$.=.$.$.;.$.=.D s $ K W.                            ",
"                              pX0 ( ;.,.9.9...r.e.w.<.<.<.e.r.r.;.=.=.=.;.;.#.) &.$.$.] #.N 2 : Q.                                ",
"                                  iXu.%.4.D.e.<.6.7.q.e.S.7.q.| ' ] Z $.$.=.=.=.] $.#.z $ % $X                                    ",
"                                      . E @.:.3.4.w.w.w.<.<.;.=.D $.` &.;.a.=.` M x @ H U.                                        ",
"                                            &X, + i %.3.3.:.&.;.;.#.f f k , J , O I lX                                            ",
"                                                      $XE.L 8 l 8 9 K T.Y.0X                                                      "
};
