/* XPM */
static char *RXhpdA__[] = {
/* columns rows colors chars-per-pixel */
"65 65 112 2 ",
"   c #000000",
".  c #090704",
"X  c #0D0905",
"o  c #0C0C0C",
"O  c #100902",
"+  c #1C0E01",
"@  c #120F0B",
"#  c #1F1002",
"$  c #10100F",
"%  c #121111",
"&  c #1B1B1B",
"*  c #241202",
"=  c #2C1806",
"-  c #361D05",
";  c #201F1E",
":  c #232323",
">  c #292929",
",  c #343333",
"<  c #3B3B3A",
"1  c #5D3106",
"2  c #6E3803",
"3  c #7F4105",
"4  c #454443",
"5  c #4B4B4B",
"6  c #51504F",
"7  c #545453",
"8  c #585757",
"9  c #5C5B5A",
"0  c #605F5F",
"q  c #656464",
"w  c #6D6D6D",
"e  c #747373",
"r  c #7D7D7C",
"t  c #834405",
"y  c #8C4600",
"u  c #904700",
"i  c #944A00",
"p  c #9C4D00",
"a  c #A04F00",
"s  c #A45100",
"d  c #AB5500",
"f  c #A95400",
"g  c #AC5500",
"h  c #AC5600",
"j  c #AD5600",
"k  c #AE5600",
"l  c #AF5700",
"z  c #AB5500",
"x  c #B05700",
"c  c #B05700",
"v  c #B15800",
"b  c #B25800",
"n  c #B35800",
"m  c #B35900",
"M  c #B45900",
"N  c #B55900",
"B  c #B65A00",
"V  c #B45900",
"C  c #818080",
"Z  c #828181",
"A  c #838383",
"S  c #858483",
"D  c gray53",
"F  c #888786",
"G  c gray54",
"H  c #8B8B8B",
"J  c gray55",
"K  c #8E8E8E",
"L  c #8F8E8E",
"P  c #918F8D",
"I  c #908F8E",
"U  c #928F8E",
"Y  c #939291",
"T  c #929292",
"R  c #939393",
"E  c #949393",
"W  c gray58",
"Q  c gray59",
"!  c #979797",
"~  c #989898",
"^  c #9A9A9A",
"/  c #9E9E9D",
"(  c #9F9E9D",
")  c #A2A1A1",
"_  c #A3A2A2",
"`  c #A4A3A3",
"'  c #A9A9A8",
"]  c #ACABAB",
"[  c #AEADAD",
"{  c #B0AFAF",
"}  c gray69",
"|  c #B4B3B3",
" . c #B4B4B4",
".. c gray71",
"X. c #B6B6B6",
"o. c #B7B7B7",
"O. c gray72",
"+. c #B9B9B8",
"@. c gray73",
"#. c #BBBABA",
"$. c #BBBBBB",
"%. c #BCBCBC",
"&. c gray74",
"*. c gray",
"=. c gray75",
"-. c #BDBDBD",
";. c #C0C0C0",
":. c #C1C1C1",
">. c gray76",
",. c #C3C3C3",
"<. c #C1C1C1",
"1. c None",
/* pixels */
"1.1.1.1.1.1.1.1.1.1.1.1.1.1.1.1.1.1.1.1.1.1.1.1.1.1.1.1.1.1.1.1.1.1.1.o o % , 4 5 4 < : . % 1.1.1.1.1.1.1.1.1.1.1.1.1.1.1.1.1.1.1.",
"1.1.1.1.1.1.1.1.1.1.1.1.1.1.1.1.1.1.1.1.1.1.1.1.1.1.1.1.1.1.1.1.o : D =.% :.:.:.=.;.:.:.% >.| 0 $ % 1.1.1.1.1.1.1.1.1.1.1.1.1.1.1.",
"1.1.1.1.1.1.1.1.1.1.1.1.1.1.1.1.1.1.1.1.1.1.1.1.1.1.1.1.1.1.o r :.=.=.=.; :.:.=.;.=.:...5 =.:.=.:. .< o 1.1.1.1.1.1.1.1.1.1.1.1.1.",
"1.1.1.1.1.1.1.1.1.1.1.1.1.1.1.1.1.1.1.1.1.1.1.1.1.1.1.1.@ 6 ~ :.=.:.=.=.e / ` r 9 8 w q G :.=.=.;.:.:.% < % 1.1.1.1.1.1.1.1.1.1.1.",
"= X o 1.1.1.1.1.1.1.1.1.1.1.1.1.1.1.1.1.1.1.1.1.1.1.% w :.:.% :.:.:./ , .                   & e =.;.w L :._ o 1.1.1.1.1.1.1.1.1.1.",
"y y t 1 O & 1.1.1.1.1.1.1.1.1.1.1.1.1.1.1.1.1.1.1.& ..:.;.:.8 ` 5                                 < o :.:.:.:., 1.1.1.1.1.1.1.1.1.",
"t y y y y y = o 1.1.1.1.1.1.1.1.1.1.1.1.1.1.1.: 5 :.;.=.=.=.<                                         7 :.=.=.:.w > 1.1.1.1.1.1.1.",
"y t y y y y y y # & 1.1.1.1.1.1.1.1.1.1.1.1.> o ..=.;.;.e                                               . ' =.=.:.. & 1.1.1.1.1.1.",
"y y y y y y y i i 2 o 1.1.1.1.1.1.1.1.1.1.% G =.o -.:.&                                                     D :.& [ e % 1.1.1.1.1.",
"y t y y y y y y i i i X 1.1.1.1.1.1.1.1.% C :.:.} & .                                                         & Q =.:.7 1.1.1.1.1.",
"t y y y y i i i i i i p # 1.1.1.1.1.1.1.9 :.:.=.]                                                               w =.:.:.& 1.1.1.1.",
"y y y y y u y i i i i i p + 1.1.1.1.1.: ,.:.=...                                                                  Q =.=.=.% 1.1.1.",
"y y y y i u i i i i i i p p + 1.1.1.% [ =.:.:..                                                                     @.:.:.q 1.1.1.",
"y y y y y y y i i i p p p p p % 1.1.C ; Z >.>                                                                       : =.O.& . 1.1.",
"y y y y u i i i p i i p p p p 3 5 o >.>.6 ,                                                                           8 & ..w 1.1.",
"t y y y y i i i i i p p p p p a + r >.=.:.                                                                            . :.=.:.o 1.",
"y y y u u u i i i p p p p p a a p , :.=.w                                                                               E =.=.: 1.",
"y y y u u i i i i p i p p p a p s * @.>.                                                                                : =.=.D 1.",
"y y y u u i i p p i p p p p a s s u 8 W                                                                                   :.=.#.4 ",
"y y u u i i i i i i p p p s a s s s . :                                                                                   ^ :.:.$ ",
"y y u i u i i p i p p p p a s a s s -                                                                                     8 Y q   ",
"y u u u i i p i p p p p a p a s s s y                                                                                     % I ] % ",
"u u u i i i i i p p p p a s a s s f i                                                                                     > :.;.$ ",
"y u u i i i i p p p p p p s s s s f i                                                                                     > ;.;.$ ",
"y u i i i p i p p p p p a s a s s s i                                                                                     > :.=.% ",
"u i i i i i p i p p p s a a s s f f i                                                                                     > =.:.% ",
"y u i i i p i p p p p a s s s s f f i                                                                                     : :.=.% ",
"i u i i i i p p p p a a s s s s s f i                                                                                     > =.:.% ",
"i i i i p i p p p p s a s s s f f f i                                                                                     > =.:.% ",
"i u i i i p i p p a p a a s s f f f i                                                                                     o , >   ",
"u i i i i p p p a p s s s s s f f g p                                                                                     > :.:.$ ",
"i i i i p p p p p s s a s s f s g g i                                                                                     > =.:.$ ",
"i i i i i p p p p a a s f s f f f g p                                                                                     > :.:.% ",
"i i p p p p p s s p s s s s f f g f i                                                                                     > =.:.% ",
"i i p i p p a p a s s s s f f f g g i                                                                                     > :.:.$ ",
"i i i i p p p p p s s s s f f f g g p                                                                                     > :.:.$ ",
"i i p p p p s a a s s s s f f g g h p                                                                                     : Q Q $ ",
"i p p i p p p a s a s s f f f f h h p                                                                                     & P P $ ",
"i i p p p p p p s s s s f f g f g g p                                                                                     > :.:.% ",
"i p i p p p s s s s s s f f g g c g p                                                                                     > =.=.% ",
"p p p p p p s s s s s s f g g g g b p                                                                                     > =.:.% ",
"i i p p p a p a s s f f f g g g g b p                                                                                     > =.=.% ",
"p i p a p p s s s s s f f g g c b b p                                                                                     > :.=.% ",
"p p p p s s p s s s f f f g g g h b p                                                                                     o < 5   ",
"p p p p p p s s f s f f g g g b c b p                                                                                     > $.#.1.",
"p p p p s a s s s s f f g h g g c b p                                                                                     > :.:.$ ",
"p p p s a s s s s f f g f h b c b b p                                                                                     : ;.:.% ",
"p p p p s p s s f f f f g b g c c B p                                                                                     > ;.;.% ",
"p p a a a s s s f f f h h g b b c B p                                                                                     > =.:.$ ",
"p p a a a s s s f f g f h b b h c B p                                                                                     > :.=.$ ",
"p p a s s s s s f f f g h b b b B B p                                                                                     : Y Q $ ",
"p s p a a s f f f f f h h h b b B B a                                                                                     ; L G o ",
"a a a s s s s f f g g h h b b b B B p                                                                                     > :.:.$ ",
"a a a s s s f s f g h g b b b b B B p                                                                                     > :.:.$ ",
"a a a a s f f f f g h b h b b B B B p                                                                                     > :.=.% ",
"a a s s s s f f f g h h b b b B B B a                                                                                     > =.:.% ",
"p a s s f f f f h h b h b b b B B B a                                                                                     > =.=.% ",
"s s s s s f f f g h g h b B B B B B p                                                                                     > :.:.% ",
"a s s s s f f g g g h b b B B B B B a                                                                                     o 4 7 o ",
"s a s s f f f g h b b b b b B B B B p                                                                                     > %...% ",
"a s s s f f g g h h h b b B B B B B a                                                                                     > :.:.% ",
"s s s f f f g f h b b b b B B B B B p                                                                                     > =.:.% ",
"s s s f f g g h h b b b b B B B B B p                                                                                     : :.:.% ",
"s s f s f g g h h b b b B B B B B B p                                                                                     > :.:.% ",
"o @ $ @ @ @ $ @ @ @ $ @ @ @ # @ X X X     .   .   .       .     .     .   .   .     .   o       o                     .   o % % o "
};
