/* XPM */
static char *fe3f76225f9047c3b03ba8a4c1b1c3d7UcZ3cyUAxy1c4RVA[] = {
/* columns rows colors chars-per-pixel */
"65 65 106 2 ",
"   c #77A400",
".  c #7BA605",
"X  c #7EA906",
"o  c #7EA60A",
"O  c #7EAB0A",
"+  c #7FA710",
"@  c #83AE06",
"#  c #84AE0C",
"$  c #8CAD0E",
"%  c #86B20E",
"&  c #8AB40E",
"*  c #87B80F",
"=  c #8AB80F",
"-  c #82A613",
";  c #85AD13",
":  c #8BAE12",
">  c #82A719",
",  c #86AD19",
"<  c #89AE1B",
"1  c #92AD12",
"2  c #99AD17",
"3  c #94AD1A",
"4  c #86B312",
"5  c #8AB413",
"6  c #87B811",
"7  c #8DB915",
"8  c #8CB41A",
"9  c #8EB919",
"0  c #91B415",
"q  c #91BB16",
"w  c #92B51B",
"e  c #99B319",
"r  c #91BB1A",
"t  c #99BB1E",
"y  c #87AC20",
"u  c #8BAD22",
"i  c #8DAE2C",
"p  c #92AF21",
"a  c #8EB322",
"s  c #8EB328",
"d  c #92B524",
"f  c #9BB224",
"g  c #94BB24",
"h  c #9DBE22",
"j  c #93B62B",
"k  c #9AB228",
"l  c #96B92B",
"z  c #98BF28",
"x  c #8FAD31",
"c  c #9CBE34",
"v  c #9ABD3B",
"b  c #A2B422",
"n  c #A3BB22",
"m  c #A8BF26",
"M  c #96C11D",
"N  c #9AC223",
"B  c #9FC82E",
"V  c #9FC33F",
"C  c #A2C427",
"Z  c #ADC029",
"A  c #A2CC2E",
"S  c #B0C72E",
"D  c #A3CC31",
"F  c #A9CE31",
"G  c #A7C33B",
"H  c #A6CC3B",
"J  c #A8C83F",
"K  c #B1C530",
"L  c #AAD337",
"P  c #AFD83E",
"I  c #B4D639",
"U  c #B0D839",
"Y  c #ABCF47",
"T  c #B1CC41",
"R  c #B4DD41",
"E  c #B4D94B",
"W  c #B2D650",
"Q  c #B7E046",
"!  c #BDE449",
"~  c #BEE651",
"^  c #BFE05D",
"/  c #C5D946",
"(  c #C2E042",
")  c #C3EA4F",
"_  c #C2E654",
"`  c #C2EA54",
"'  c #C2E35D",
"]  c #C5ED58",
"[  c #CBF355",
"{  c #CBF25E",
"}  c #C8E765",
"|  c #CBEB62",
" . c #D4EF6A",
".. c #CFF36F",
"X. c #D6FC67",
"o. c #DBF56D",
"O. c #D4F874",
"+. c #DDFF73",
"@. c #DBFF79",
"#. c #E1FF73",
"$. c #E5FF78",
"%. c #EAFF7D",
"&. c #DEFB85",
"*. c #E1FD8C",
"=. c #F2FF87",
"-. c #F1FF91",
/* pixels */
"5 5 = = = & & & = 5 4 ; % % & & 5 5 4 5 5 5 = & = & & & 5 4 5 5 : 8 5 5 & & 5 = 9 9 7 5 w ; g X.#.l ; 8 5 5 5 5 = 5 5 & 5 5 5 5 5 ",
"5 5 = & = 4 = & 5 5 5 4 % & & & 5 5 5 5 5 5 & 7 & # % 5 5 5 5 5 : 5 5 5 5 & 5 & 4 % 4 4 8 8 < z g o 8 a 5 8 4 8 5 & = & 5 5 5 5 5 ",
"5 5 5 5 4 5 5 8 5 5 5 5 5 5 = 5 5 5 5 5 5 % 5 7 5 & & 5 5 4 8 5 5 5 5 5 = 5 % & 5 4 9 8 : 8 8 ; , 8 g 4 # 5 % 7 = & = 5 4 5 5 5 5 ",
"& 5 5 8 < 8 8 8 : 5 5 5 5 5 5 5 5 5 5 5 5 4 5 q 7 5 5 5 5 5 5 5 8 5 : & & = 4 4 5 = 5 5 ; 4 w a 8 8 8 4 r 7 # 5 & 5 5 & 5 5 5 5 = ",
"& & = 5 8 8 a 9 5 5 & & 5 5 5 8 5 5 5 5 5 5 5 5 5 & 5 5 ; 8 4 4 8 5 4 ; & 5 = % = = & 5 8 5 5 5 4 ; 8 9 5 5 = 5 5 & & 5 5 5 5 5 5 ",
"& & & & 8 a 8 8 5 & & & 5 5 5 5 5 = 5 5 5 5 5 5 5 & 4 5 5 5 9 < 5 5 4 4 # & 4 5 5 q 5 5 7 5 8 5 8 5 5 & # 5 0 & = 5 = & 5 5 5 5 5 ",
"& & & = 5 5 5 5 & & = & & & 5 5 5 5 5 5 5 & 5 7 5 5 8 8 8 8 9 8 4 5 4 4 % 5 = 5 % = 5 = % 4 6 6 4 5 5 5 5 q q @ & & 5 = 4 5 8 4 5 ",
"& & & = 5 & 5 5 5 5 5 & & & = % 5 5 5 5 & 5 5 r 5 5 5 5 , 8 8 5 4 < 5 5 5 & 5 = = & % 7 4 % 9 4 5 7 4 5 7 = = 7 & & 5 5 5 5 5 5 5 ",
"5 & & = & 0 5 w ; 8 8 8 5 & & & = q 7 5 5 5 5 r 5 5 5 8 8 ; D ; 4 4 4 4 % 5 5 & & 5 5 = % = 5 % & & & 5 5 & & & = 5 5 5 5 5 5 5 5 ",
": 8 5 $ & 7 q 5 d a s , 8 N & = X # 5 % # 5 & 5 8 4 ; ; 8 g R U 8 4 6 8 $ 8 5 = $ & & 5 = 5 % % 5 5 = 5 & = & & & = & = 5 5 5 = 5 ",
"d < ; r = & 9 8 y Y ..@.> w 0 @ # 5 5 5 5 7 5 5 % 5 9 5 7 4 g 5 4 4 9 8 5 5 & 0 0 = 0 5 = 6 9 r = 5 = & 5 = = = 5 & 5 5 5 5 5 & 5 ",
", d 8 A $ 5 8 < s -.v V j 8 5 w 5 5 5 5 5 5 5 5 @ # 5 # 8 5 5 8 9 4 9 9 5 0 $ & & 1 q w 5 % = % & = 5 = & 5 5 % & 5 5 5 5 5 5 5 5 ",
"a , 8 [ U 5 - d s W O.' u a 5 ; 5 5 5 5 5 5 & & 5 7 q % 5 5 4 9 4 4 5 8 : 8 5 3 t 0 : 5 5 5 6 9 5 5 5 & 5 5 5 5 5 5 q 5 5 5 = 5 5 ",
"8 < : 5 5 : 8 8 y y a y < 8 5 5 5 7 5 5 5 5 5 = # % 5 5 r 5 ; 5 O O 4 5 $ 0 $ 8 I C q $ : 5 4 % 5 5 5 : 5 5 5 & 5 5 7 5 5 & & 5 5 ",
"& & 5 5 7 5 8 ; 8 8 : d 8 5 # 5 5 8 5 5 5 5 & 5 7 5 = 5 5 5 5 5 4 O 5 5 5 0 : e e : : 8 5 5 5 4 5 5 4 # 4 5 5 5 5 5 5 5 & = = & 5 ",
"& = = = & 5 $ 8 5 8 8 5 5 # r & 5 5 5 5 5 q q q = 5 = q r 5 w : 9 ; 8 w 5 : : 0 t w 0 $ o . 4 9 8 5 ; # ; 5 5 5 5 5 5 5 5 5 5 & 5 ",
"& & % = 5 5 & # 5 5 ; 4 6 5 4 6 9 < 8 4 5 8 5 5 4 M 6 4 # 8 : 2 3 1 3 t M + 6 O & 0 0 $ 4 4 4 6 5 4 5 5 5 5 & 5 5 5 5 r r 5 5 5 5 ",
"5 5 5 5 5 5 5 : 5 & & 5 9 6 6 6 4 6 8 5 5 5 5 5 4 O % # h 3 3 3 b 2 : 8 M M 6 6 5 5 & & 5 6 6 4 % 5 7 7 q 5 4 5 5 5 5 5 5 5 5 & 5 ",
"5 5 5 5 & 5 5 5 5 5 5 6 9 6 5 4 4 9 4 9 5 - 5 5 4 M . o ; < 3 f / S r 4 O O 6 6 = & & 0 8 5 6 6 5 & 5 7 5 5 5 5 5 5 q q 5 5 5 5 5 ",
"5 5 & 5 : 8 5 q 5 5 5 7 7 6 4 6 4 6 5 9 5 # # 4 9 O a 4 < d | k b 2 8 + 9 M 6 6 5 $ & 5 5 5 4 4 5 5 5 5 & # % 5 5 5 7 5 5 # % 5 # ",
"0 5 5 5 & $ 5 5 5 = 5 5 5 5 5 5 = % 5 5 5 : # ; 4 4 g < < =.v o.3 1 0 8 6 O O O 5 5 5 0 5 4 4 9 4 4 5 r 5 # # # 5 5 5 5 5 5 5 & 5 ",
"$ 5 0 5 5 5 & 5 5 5 5 5 5 & 0 & & @ 5 & : 5 # 5 g 4 + a d k o.T 3 1 : 5 M O M M 4 5 5 5 5 5 9 4 5 5 7 5 5 5 % 5 5 5 5 5 # 5 5 5 5 ",
"& $ 5 5 5 5 5 4 5 4 5 & 5 : 5 & & @ & & 5 5 5 5 4 ; r < , - < p : $ & 5 M O % % 5 5 r 5 5 8 4 4 5 5 5 = 5 5 5 5 % 5 5 # o @ % 5 5 ",
"0 5 & 5 5 5 5 4 4 4 5 5 5 5 5 & & 7 = 7 5 5 g 9 4 8 : w < - d 3 w $ # # O M 9 9 % 7 w 5 4 4 4 O X % 5 5 & 5 5 5 5 5 5 & % 5 5 5 5 ",
"$ % 7 9 6 6 6 4 6 O 6 6 & 5 5 5 * = = q q 5 5 5 5 5 6 r 0 : w < 8 $ 5 6 4 4 6 9 5 5 < 4 5 5 5 4 7 5 5 5 5 & 5 5 5 5 5 5 5 5 5 5 5 ",
"5 5 7 6 % 4 8 6 5 9 9 5 5 5 5 5 % * 5 7 8 5 5 5 & % = 5 5 & 8 0 & 5 4 % % 5 6 4 5 5 5 5 5 8 4 4 7 5 5 5 5 5 & 5 5 5 # 5 5 5 5 5 & ",
"4 4 4 % X X % = & r 4 4 5 5 5 % 6 5 5 5 5 5 5 5 6 % = = & & 0 5 5 6 5 5 9 5 4 8 4 8 5 5 4 5 5 5 q 5 5 5 5 5 5 5 5 = 5 5 5 5 5 & 5 ",
"6 4 6 5 % % 5 0 8 r % 5 5 4 5 5 6 6 5 5 8 : 5 5 q = = = & = 0 # # 5 4 5 5 5 4 8 5 5 5 5 5 5 5 5 5 5 5 5 5 5 5 5 5 5 & 5 5 5 5 5 5 ",
"6 4 5 7 5 5 0 = 0 & 0 0 = = 5 5 6 = 5 5 5 5 8 & 7 = = % = = & # . 5 5 # 5 8 w w 8 5 5 5 5 & 5 & 5 5 5 5 5 # 5 5 5 5 5 5 5 5 5 5 5 ",
"4 4 5 5 $ 5 1 $ 1 $ 1 0 & & 5 & % % # 4 8 8 : 5 5 % 4 6 5 5 5 5 4 5 8 q 8 5 5 r 5 5 5 5 4 & = & 5 5 5 5 # # # 5 5 & 5 5 5 5 5 5 5 ",
"6 5 9 5 0 0 e 0 1 n e $ 0 5 5 & 6 % % 4 5 5 8 5 5 # % 4 5 5 8 8 9 4 # 8 0 0 : 8 5 5 5 5 % = & & 5 7 5 5 & # 4 5 5 5 5 5 5 5 5 = 5 ",
"4 5 5 8 $ $ 1 1 n ( t $ 0 $ 8 & r 7 5 5 8 5 5 5 5 X O 4 5 ; 8 w 4 9 8 # 8 F F : 5 5 5 4 = 4 = = = 5 5 5 5 5 5 5 5 % & 5 & 5 5 5 5 ",
"4 8 8 4 5 8 0 1 t w 0 8 0 5 5 5 = 7 5 5 5 5 5 5 % 5 5 5 & 4 5 5 4 4 9 ; 8 ! ` 5 5 < 4 9 r 5 % 5 6 4 5 5 4 9 5 r 8 9 5 5 4 5 5 = & ",
"8 8 5 : & 5 5 5 r 5 : 5 5 5 & 5 # 5 5 5 5 5 5 5 5 5 5 5 5 5 5 5 5 # 5 5 4 5 8 : 8 8 8 5 9 8 4 5 & % 4 4 B O 4 8 5 8 5 5 5 5 5 % 5 ",
"5 4 5 % % & = 5 8 & 5 : 5 5 5 5 @ 5 5 5 5 5 & 5 5 5 5 5 5 5 5 5 5 5 5 5 5 4 4 8 8 r 5 5 5 5 5 5 8 g 4 8 ; N 8 4 5 9 5 5 5 = = = 4 ",
"5 5 & & & & & = 5 5 5 : 5 8 5 : # 5 5 5 5 5 5 5 5 5 & & 8 5 5 5 4 7 5 ; 5 8 5 5 5 8 5 5 5 5 4 8 < , 8 s ` ` , 8 8 5 5 5 & 5 = 5 5 ",
"= & & & & & & = 5 5 5 5 8 5 5 4 5 5 5 5 5 7 5 = 5 5 5 5 5 5 7 5 5 5 5 5 5 # 5 5 & 5 5 5 5 % ; 8 s u j y j H 8 8 : 5 5 & & & 5 5 5 ",
"& & $ & & & & 1 5 5 5 8 4 5 8 5 5 5 5 5 5 5 5 5 5 & 5 5 5 5 5 5 5 5 5 5 & 5 7 = 5 & & 5 5 # # : s ^ ' > l > : 8 5 5 & 5 5 = = 5 5 ",
"& $ & & 5 5 : 5 5 5 5 & 4 5 5 8 5 5 & : 5 5 5 5 5 5 5 5 = & 5 5 5 8 5 & % & = @ = & = 5 5 5 # 8 c } } Y d w 8 : 5 5 = = 5 5 & 5 5 ",
"5 5 0 q 5 8 5 5 5 5 5 5 5 5 5 5 5 5 5 5 7 5 5 5 5 q 7 5 5 5 5 5 4 5 & = 7 & & 0 & = & = 5 5 5 < l } +.a < - w : 5 5 = 5 5 5 4 5 5 ",
"w 5 < z w 8 ; 5 5 5 % = = 5 5 5 5 4 5 % M 5 5 5 5 5 # % 5 5 5 r 5 5 5 5 M @ = = & # q = 5 r 5 8 < u p < # - : & 5 & & & 5 5 8 4 5 ",
"8 < < < < s a 8 5 $ @ % & & 4 5 5 5 5 5 q 5 5 5 5 5 # & 5 5 5 7 ; 4 5 5 7 7 5 = q & & # 5 5 4 5 3 w d t : 5 0 0 & & & 5 5 5 4 4 5 ",
", d < d O.a , 8 5 5 & & 5 7 6 6 5 5 & 5 & 5 5 5 5 # & & 5 5 5 5 r # 5 # ; 5 4 4 # 5 q 5 5 q 5 5 8 8 0 w 0 & & & & & & 5 5 8 8 5 5 ",
"8 < d +.E J < 8 5 & & & % % 5 4 5 % 5 5 4 5 7 5 5 5 5 5 5 5 5 # 5 % r r 5 5 ; 4 5 8 5 5 5 5 5 5 5 & 5 0 & & 5 & 0 & $ 5 5 5 5 4 5 ",
": w d $.{ a 8 8 5 6 = & 4 4 4 < 4 # 5 5 5 5 r q 5 5 5 5 # 5 & o & 7 8 r 5 4 g N g 8 ; 4 8 % & 5 & & & & 5 5 7 & 5 5 5 & 5 5 5 5 5 ",
": 8 w < s a a ; 7 0 q = * 6 4 8 5 # 7 & r # q 5 5 5 5 5 5 5 = # 7 M # # ; 8 8 , , ; 8 8 4 5 5 = # # & & 5 5 5 & 5 5 5 5 5 5 5 6 5 ",
"5 q w < 8 - z 8 5 = = & % 4 4 4 5 5 5 5 5 % 5 % 5 5 5 5 5 5 5 5 = q # 5 a a , a a ; a 8 # 5 7 % 5 4 5 7 6 9 8 5 5 5 5 5 & = = = & ",
"0 # 8 8 8 < 5 ; 7 7 = % 4 9 8 8 5 5 5 5 5 5 5 5 5 5 & = 5 5 % 5 & 5 5 8 5 , g X.{ a ; 8 8 8 % 5 5 4 4 5 4 4 8 5 5 5 5 5 & = & & 4 ",
"5 5 5 5 5 5 5 5 9 5 = 5 5 5 r N % & 5 5 5 5 ; 5 5 % = & & 5 5 5 6 4 5 5 w - j %._ d > d w 5 5 & 5 5 5 5 5 5 5 5 5 5 4 ; 5 5 5 5 5 ",
"5 & 5 5 & 5 5 5 5 5 7 5 & $ 4 % 7 5 5 5 5 5 8 5 5 5 5 = = 5 = & % 4 8 ; w g > 8 l < : 8 : 5 0 5 5 5 5 5 5 5 5 5 5 5 # # # # 5 5 5 ",
"5 5 5 5 4 5 5 & # 5 5 5 5 5 7 5 5 5 4 4 8 ; 8 4 8 5 5 7 5 5 5 4 6 = 6 7 4 4 8 8 : 8 r w $ $ & & 5 5 5 4 5 5 & = 5 4 # 5 & 5 5 5 5 ",
"5 $ 5 5 5 5 5 5 9 5 r 5 % 5 5 5 4 9 8 4 8 ; 8 9 5 5 q 5 5 4 5 5 7 % % 8 5 ; 8 5 5 5 5 r 5 5 = 7 5 5 5 5 5 5 5 7 5 5 5 5 5 7 5 5 & ",
"5 5 5 5 5 5 5 5 5 # # 5 5 5 & 5 ; o 9 < a g 4 < 8 5 8 5 5 5 8 5 5 & 1 & 0 5 5 # 8 6 % 6 9 * * M % = & & 5 5 5 7 5 & & & = & & & 5 ",
"5 & 5 5 5 & 5 5 % . X 5 5 5 5 8 4 8 a 8 ] ~ 8 8 8 5 8 5 5 5 5 8 $ e e & & = % = 4 7 6 6 % & % % = = & & = = 5 = = % = 5 5 = = 5 5 ",
"5 5 4 & 5 4 5 5 5 % 5 7 5 5 5 % 4 8 < + { ~ 4 , 5 5 5 4 5 5 5 5 q $ & 1 = %     % * 6 % & 5 0 = & & 5 & 5 5 5 5 & 5 7 q r 5 & & 5 ",
"5 5 5 5 5 5 5 & 5 5 5 5 5 5 5 5 8 4 9 4 a ; < + 8 5 5 5 5 5 5 5 t $ 0 & & = * * = % = 6 5 & 0 8 5 5 = 5 5 5 ; 5 5 5 5 7 5 & & 5 5 ",
"@   % 5 5 5 & 5 & 5 5 5 & 5 5 5 8 5 : 5 8 < < 4 5 5 5 & & = 5 0 1 b m e 1 = 0 % 5 4 6 6 4 5 5 4 5 5 5 5 5 5 8 r 8 5 8 5 5 5 5 4 5 ",
": # q r & 5 % 5 5 5 5 5 5 5 & 5 & 5 5 5 4 5 8 4 5 5 & = 5 5 5 : e Z S n 1 $ & = 6 5 6 4 4 9 5 5 8 5 5 5 5 4 8 8 ; 8 5 8 4 5 5 5 5 ",
"5 5 9 5 5 5 5 5 q 5 5 5 5 5 5 5 & = 7 5 5 5 8 5 5 & = & = & = 5 1 0 1 : 5 5 q : 5 5 5 5 8 0 : 8 5 5 4 8 8 , 4 8 B B 5 ; 4 8 5 ; & ",
"5 4 5 5 5 5 & o 5 5 5 5 5 5 5 = = 5 7 7 8 5 5 5 5 5 & & @ # & 5 & 1 0 5 : $ 8 5 8 5 : 5 8 5 0 : 5 5 5 8 5 8 8 , P R 8 5 4 8 5 5 5 ",
"5 5 5 5 5 5 # . % 5 5 5 5 5 5 & = = 0 q 8 5 5 5 5 5 = & # # % 5 0 0 0 5 : : : 8 8 5 5 5 4 6 6 4 5 5 5 5 5 5 8 8 r D 8 8 ; 5 5 5 5 ",
"5 r 5 & 5 & & 5 & 5 5 5 5 % & 5 & = 5 5 5 5 4 5 5 5 5 & = 4 5 5 0 $ # & q 0 5 $ 5 5 8 4 6 * 4 6 4 5 5 5 5 8 8 4 ; r ; 5 5 5 5 5 5 ",
"5 7 # # 5 5 5 7 5 5 5 5 5 5 5 % & & = 5 5 ; 5 5 5 5 5 5 7 8 5 5 & 7 M 7 5 4 5 5 5 5 5 5 4 % % % % 5 5 4 5 6 8 : 8 5 5 5 5 5 & % 5 ",
"5 5 . # 5 5 5 # 5 4 % 5 5 5 5 & & & % 5 5 8 5 5 8 5 5 5 5 5 5 4 % * 6 % 4 5 5 5 5 7 9 q 7 6 8 8 8 8 5 5 5 8 5 4 5 4 5 5 5 & = 5 5 ",
"5 5 & 5 5 5 5 5 5 & 5 5 5 5 5 5 & = 5 5 5 5 5 4 5 5 5 & 5 5 5 5 4 4 % 5 5 5 5 5 6 9 4 6 5 8 x *.*.i : 5 5 7 4 4 5 5 5 5 5 5 = = 5 "
};
