/* XPM */
static char *ddf604d6e9c44aba9a6e6f93b596c8bfnt98ca6sck2JIHi5[] = {
/* columns rows colors chars-per-pixel */
"65 65 195 2 ",
"   c #BD141D",
".  c #BC1D1B",
"X  c #B41E1D",
"o  c #B7221C",
"O  c #B51F20",
"+  c #B62021",
"@  c #BB2323",
"#  c #BF3737",
"$  c #CF0E0F",
"%  c #DC0D05",
"&  c #DF070C",
"*  c #D70F0D",
"=  c #DD0D0C",
"-  c #C7140F",
";  c #CC140F",
":  c #CB190E",
">  c #DC1106",
",  c #D3130E",
"<  c #DB120D",
"1  c #CB0E13",
"2  c #CA0F18",
"3  c #D70F11",
"4  c #DD0E13",
"5  c #D70F1A",
"6  c #DA0E19",
"7  c #C71612",
"8  c #CD1414",
"9  c #C41A14",
"0  c #CB1914",
"q  c #C61619",
"w  c #CD1519",
"e  c #C71C1B",
"r  c #CE191B",
"t  c #D41414",
"y  c #DA1114",
"u  c #D31A15",
"i  c #D2151B",
"p  c #D31A1A",
"a  c #DD1B1C",
"s  c #DA121D",
"d  c #E70304",
"f  c #ED0604",
"g  c #E40C06",
"h  c #EC0905",
"j  c #E20608",
"k  c #ED060A",
"l  c #E20D0B",
"z  c #ED090A",
"x  c #F50403",
"c  c #FC0102",
"v  c #F20903",
"b  c #FC0901",
"n  c #F5030A",
"m  c #FC010A",
"M  c #F10A0B",
"N  c #FC0B0C",
"B  c #E4140E",
"V  c #E8120F",
"C  c #ED0513",
"Z  c #E20D11",
"A  c #ED0B12",
"S  c #EF0619",
"D  c #F30615",
"F  c #FF0111",
"G  c #F10A13",
"H  c #E31615",
"J  c #E91312",
"K  c #E31D16",
"L  c #EB1A16",
"P  c #E6151A",
"I  c #E9141B",
"U  c #E41C1C",
"Y  c #E91B1C",
"T  c #CD211F",
"R  c #DF2016",
"E  c #E02015",
"W  c #E0201F",
"Q  c #E92019",
"!  c #CE1522",
"~  c #C51A23",
"^  c #CC1C21",
"/  c #C01E29",
"(  c #D11120",
")  c #D51A22",
"_  c #DB1C23",
"`  c #DD1D2A",
"'  c #E21C24",
"]  c #EA1821",
"[  c #E21E2A",
"{  c #C72427",
"}  c #CE2323",
"|  c #C72A25",
" . c #C62629",
".. c #D32623",
"X. c #DE2221",
"o. c #DF242F",
"O. c #D1232D",
"+. c #CB322C",
"@. c #D6312F",
"#. c #C52531",
"$. c #C03435",
"%. c #D63230",
"&. c #E22028",
"*. c #DB433E",
"=. c #BF5254",
"-. c #CF4747",
";. c #CD4B44",
":. c #CD4748",
">. c #CD4D4C",
",. c #D24744",
"<. c #D24A46",
"1. c #D84A46",
"2. c #D3474B",
"3. c #D34B4B",
"4. c #D94B4A",
"5. c #DA4445",
"6. c #CF4D51",
"7. c #D24D51",
"8. c #C35254",
"9. c #C75A57",
"0. c #C55459",
"q. c #C9565B",
"w. c #D25152",
"e. c #CE6167",
"r. c #C66264",
"t. c #ED6D64",
"y. c #FF6C65",
"u. c #FF676F",
"i. c #FF6D6D",
"p. c #E5766B",
"a. c #FF726D",
"s. c #FF6E72",
"d. c #FF6F79",
"f. c #E47777",
"g. c #E47B75",
"h. c #EC7D75",
"j. c #E87578",
"k. c #E57C79",
"l. c #EB797A",
"z. c #F57276",
"x. c #FF7273",
"c. c #FF7874",
"v. c #F67378",
"b. c #FF757B",
"n. c #F07E7B",
"m. c #FF7B7D",
"M. c #DB837A",
"N. c #D3827E",
"B. c #E68177",
"V. c #FF7580",
"C. c #F57E86",
"Z. c #FE7B82",
"A. c #D08781",
"S. c #D79B9A",
"D. c #E6928D",
"F. c #EF968D",
"G. c #ED998F",
"H. c #F59086",
"J. c #F3968D",
"K. c #FA948C",
"L. c #F69D8F",
"P. c #F8988A",
"I. c #FB8E93",
"U. c #FB8F9C",
"Y. c #F48D90",
"T. c #ED9493",
"R. c #EB9B94",
"E. c #EF9B99",
"W. c #EB9699",
"Q. c #F49494",
"!. c #FE9594",
"~. c #F49994",
"^. c #FE9A95",
"/. c #F5979B",
"(. c #FF969B",
"). c #F39A9B",
"_. c #FF9A9A",
"`. c #EBA09B",
"'. c #FFA29C",
"]. c #FFA99F",
"[. c #F19AA0",
"{. c #FF9CA1",
"}. c #DBA4A5",
"|. c #E4ADAD",
" X c #EBA9A5",
".X c #FFA4A2",
"XX c #FFA6AB",
"oX c #FFABAD",
"OX c #F9ABA1",
"+X c #FFB0AF",
"@X c #E0ACB0",
"#X c #FEA7B0",
"$X c #FFABB2",
"%X c #FFB3B4",
"&X c #FFB9BB",
/* pixels */
"c c c c c c b c c v v v x < (.U.6 c m m b c c m c b c m c c m m c m m m m m c v x b x x x c m 6 (.U.H c v v x m c c c c c b c c c ",
"c c c x c c c c c m v x c < (.U.y c c m c c c c m m c c c c c c c c c c m c c x x c b c x x c y (.!.< c v x m m c c c c c x b c c ",
"c b v x c c c c c c x b c B (.I.y c c c c c c c c c c c c c c c x x c c c c x b c c c c c c c y ~.Q.< x x x m c c c c c c c c c c ",
"c x x x c c c c c m c b c y /.Y.< c c c c c c c c c c c c c c c c x b c c c c c c c c c c c c y /.T.< b c c m m c c c c c c c c c ",
"c c x c c x c b c m c c c y ~.Q.y c c c c c c c c c c c c c c c c c c c c c c c c c c c c c c t ).R.t c c c m c c c c b c c c c c ",
"c c x x m c x x m m c c x y ~.Q.y c c c c c c c c c c c c c c c c c c c c c c c c x c c c c c t E.R.t x c c c c x c c x c c c c c ",
"c c c c c c x c c m c x x u K.K.< c c b c c c b c c c b c c c c c c c b b c c c n c x c c c c t ~.K.t x c c c c x x x m c c m c c ",
"v v x n n M z l k M n M g 0 !.K.8 z h z z v z h v k v z v k v M z z f v v h f M z z g z v v z w !.Q.u z k n v z h g z k M n k M f ",
"t t y y y i 8 0 w u t i u o ~.T.X t t w t u w t t t 8 t t t t w ) 9 p t , , u w i ! r u t t u @ /.W.@ u , t u : : : w t t t t w t ",
"i.a.i.u.s.s.a.a.i.x.s.s.x.c.oXXXb.s.x.i.x.i.s.s.s.s.s.s.s.s.s.x.v.m.i.a.a.a.x.s.s.x.s.a.i.i.s.m.XXoXc.s.s.a.i.a.a.a.s.s.u.i.a.x.x.",
"c.a.x.a.d.d.c.c.a.c.x.s.c.b.V.Z.c.x.x.x.x.x.c.x.x.x.x.x.x.x.x.m..X&Xm.a.a.a.s.s.d.d.x.s.u.s.d.b.C.C.m.s.x.c.a.c.a.c.c.x.s.a.x.x.x.",
"9 9 8 8 2 w w 7 9 0 r w 8 i   ~ w w w w w w w w w w w w w w w o N.`.# e r r w ) ( i 8 8 t i w ~ /   r 8 w r - 8 : 9 w w t 8 0 w w ",
"g g v M D G M v h h M M M f G A M M M M M M M M k M M M M M M t g.]...l h h d M M G v v v M G A A z h M z z M h M k G C z v v z f ",
"c x c b c m c c c c c c c x c c c c c c c c c c c c c c c c c = p.'.' x b b c c c c c c c c x x c c c b x c b c c c m x c c c x c ",
"c c c c m m c c b c c c b x m m c c c c c c c c c c c c c c c 4 k..X[ m c c x v x c c x b c x m c b c b c c c c c m F m c c b c c ",
"c c c c m m m c c c c x x x x b c c c c c c c c c c c c c c c < k.'.&.n c c v x c c c c c c m m c c c x m m c c c m m m c c c c c ",
"c c c c x m m c c c c c x x c c c c c c c c c c c c c c c c c * B.^.o.D x x x x c c c c c c c c c b x x x b c c c x n n c c c x x ",
"c c c c m m x c b c c c x x c c c c c c c c c c c c c c c c c = h.'.) D x c x b c c x c c m c c c c x x x m c c c m F m c c x c c ",
"c c c c m m m c x c x c b c c c c c c c c c c c c c c c c c c g t.'.s D N c x c c c x x m c c c c c b b c m c c c c m m c b x c c ",
"= = g l 4 Z l l B J = = l l Z 4 l l l l l l l l l l l l l l l w n..XO.6 4 & g g l l = 4 Z l = = 4 = j j = = g J l Z Z 6 l g = g Z ",
">.>.3.3.6.7.3.<.<.;.<.3.3.7.0.8.6.4.4.3.4.4.4.7.4.3.4.4.4.4.4.8.S. Xe.7.<.-.4.1.4.4.3.w.4.3.3.>.8.q.3.4.w.3.<.<.4.4.7.7.4.<.>.3.4.",
"'.^.^.^._.^.^.^.^.!.'._.!.(.&X%X_.^._.^.!.!.!.(.!._.(.(.^.!.^._.'.oX{._._.^.^.!.!.!._.^._.^.^.'.%X&X!.!._._.^.^.^.^.(._.!.^.L.'.^.",
"E Q Q U U W E E U K U U U %.K.~.| ] Y ] Y Y Y Y Y Q ] Y U Y Y &.p ..a P K K L Y Y Y W W U Y Q ..^.J.@.] I Y Y Q Q U W Y Y U U Q Y ",
"v v b x x x x b v c x m n t K.H.y v x v m v n c n c v c n x x m f M f N b x c c c x v v c v v : P.H.t x m c b x x v m c v c v x n ",
"x c c c c c c c c c c c m y ~.F.t x x b c x m c c c c c c c x x c x c x v x c c m c c x c c x < ~.F.i x m c c c c x c c c c c c c ",
"c c c c c c c c c c x c c s ~.~.y x c c c c c c c c c c c c c c c c c c x c c c c c m x c c m t ~.~.y x c c m c c c c c c c c c c ",
"c c c c c c c c x m x m m y !.I.6 c c x c c c c c m m c c m c c c c c c x c c c c c c c c m c 6 /.!.y x x x x c c c c c x c c c c ",
"c c c c c c c c m m x x x Z I.I.y m c c m c c c c c c c c c c c c c c c c c c c c c c c c c m Z (.I.6 x x x n m c c c c c c c c c ",
"c c c x c x x c m c f v b B I.I.= b c c c c c c c c c c c c c c c c c c c c c c c c c c c c c 4 U.I.B x v v c c c c c c x x c c c ",
"c c c c x c x c c m x x c > !.I., c x c c c c c c c c c c c c c c c c c c c c x c c c c c c c 4 (.I.< c v x c c x x x c c c c c c ",
"x b c c x x x c m m x c b < ~.W.t x n x x x c c c c x m x x c x x c m x m n x v x x n c x n n i /.~.< b c c m m b c x m c c c x x ",
"J P I I I P I I ] ] I P J T ).W.{ U U P P P I P I P I I I P U a ) ) _ I I P P a H Y L J s U a #.[.).p J J I ] I J P I I I I P P U ",
"(.(._.^.^.^.^.!._.(.(.(.(..XoX+X{.(._._.(.(.(.(.(.(.(.(.(.(.(.{.$X$X{.{.(.(.{.(.^.^.!.(.(.(.(.{.$X$X{.(.(.(.(._.!.!.^.^.^._.(._.!.",
"7.7.<.<.3.<.2.1.3.3.>.>.7.3.w.>.3.3.3.3.w.3.3.3.3.7.3.>.3.3.3.=.S.@Xr.6.:.<.6.6.>.3.4.4.7.6.7.3.w.7.2.2.>.3.3.3.<.<.<.;.3.3.3.>.3.",
"l l g = B % l l = = l Z l l = * = = g = g = j g l l g g l = g 9 M.OX| y g l = < > > g g & 4 & = = = l j Z l l l l g g = = g & = & ",
"c x c c c c c c b c c c c c v x c c c c c c c c c x c c c c c = p.'.u v m b x x x c c c c c c x v v c c c c c c c b c c c c c x c ",
"m c c c c c c c c c c c c c c x c c c c c c c c c c c c c c c = l.'._ f x c c c c c c c x c c c x x c c c c c c x c c c c c c c c ",
"c c c m c c m x c c m c c c x x c c c c c c c c c c c c c c c = n._.&.n b c c c c c c c m c c c c c c c c c c m m c c c c c c c c ",
"c c c m c m m m c c c c c c c c c c c c c c c c c c c c c c c B j.{.' n x c c c c c x m x m c c c c c c c c c c m m m m c c c m c ",
"c c c c m c x c c c c c c c c c c c c c c c c c c c c c c c c * f.XX_ n c c c c c c c c c c c c c c c c c c c c x c c c c c c c c ",
"c c c c c c c c c b x c c b c c c c c c c c c x c c c c x c c , M.'.X.M c b c c c c c c c c c c c c b c c x c b c c c c c c c c c ",
"v v h h h z n k d h h h h f d d h f f f h h h h h v h h h v h 8 M.OX} j d d v f v v v v n k f f d d k f h h f f v k z h d h v v h ",
", , , 8 8 8 t t u ; : - 8 2 ! ^ w 8 t 8 , 8 t ; 8 ; t 8 t 8 8 X A. X$.w u t i i 8 8 8 8 8 w 8 w ^ ^ w 8 - : 8 : 3 t 8 w 8 , , * t ",
"y.i.u.i.i.u.i.u.y.y.a.i.s.s.Z.z.i.i.i.i.u.i.i.u.i.u.i.i.i.i.i.x._.%Xc.u.i.i.u.s.a.y.i.u.i.s.i.x.v.Z.u.s.a.a.y.y.u.u.u.i.u.u.y.i.i.",
"i.a.i.u.i.x.u.i.a.y.a.i.s.b.oX.Xc.i.s.i.a.i.i.i.i.i.s.i.i.u.s.s.V.m.c.a.a.c.d.x.a.a.y.y.a.c.x.b..X+Xx.x.i.a.i.a.u.s.i.s.i.u.i.a.i.",
", t t t w t t < , , u 8 ( #.D.G.. t t t t t t t t t t t t t t t i 1 y , - 8 2 i 8 : , : t w w o `.D.#.( 8 8 , , y y t w t t t t t ",
"g g k k k j k x d h M C S ! J.P.8 d f h v d f k f f f f f k v f k v f h d k D D h h h f h k C w L.T.! C k z f f f f j k k f h g k ",
"x c c c x x c c c m c c F 5 L.H.< c c c c c c c c c c c c c c c x N c c c m m x c x c c c c m y P.J.5 F c c c x c c c x c c x c c ",
"c c c c b c x x x m c c c H Q.I.< c c c c c c c c c c c c c c c c c c c c c m x c c c c c c c < ~.Q.4 m c c c x x x b c c x b c c ",
"c c c c c c x x c m b b c H Y.Q.4 c c x c x c c c c c c c c c c c c c c c m c m c c c c x c b < ~.J.y c c b c x x x c c c c c c c ",
"c c m x c c c c n m c c x a Q./.i c m m x c m m m m c c m c m m c m c c m m m m c c m m m m c t /.R._ x c c m m m c b c c x c m c ",
"c m n m c c c c F F x c x s ~.Q.t m x x c m m x c c m m m m c m m c c c x c x x c c m m n n c t ~.T.i m x c c F m c c c m m m c m ",
"c m x x b c c c m m x v v , ^.K.< c c c c c c x c c c c c c c c c c c b v v v x c b c x x n c < H.P.$ x x b c m c c c x x x c c c ",
"l l y t B g l l j J > > > 9 L.^.e = < B l l l l l l l l Z l l Z l l g g > > = > j g = < 3 , = 9 '.J.9 * % g l l l l l < < < Z Z l ",
"2.2.>.>.;.,.<.,.2.4.;.;.;.9.}.|.=.<.-.<.-.-.,.,.2.<.<.,.2.,.2.<.6.3.5.*.*.;.:.<.<.<.;.>.>.>.3.8.|.}.0.2.<.<.<.2.2.2.;.;.>.>.3.4.<.",
"_._.(._.^.^.^.^.(.(.^.'.!.(.$XXX_._._.^._.^.(.(._._.(.^._.^._.(.$XoX_.!.!.^._.(.!.^.^.^._._._._.oX$X(.!.'.K.^._._.(._.^.^.(.(.(._.",
"U U ' U U I Y Y ' W E K L Y ` ` ' Y Y P U U U U Y Y I Y Y U Y } k..X+.a K Y U ' Y I Y K Y Y I ' ` ` ] ] K K E U U ] U U U a U Y U ",
"x x x n c x x x v f h f c x m D n n x x x x x x x x n x x x x 4 p.'...B h v n m m c x c c c x x n m m x f h v x v n x x v x n x m ",
"x x m c c x c m x x x v c c m m x c c x x x m m x m x x m x x 4 k..X_ k x x m m m c c c c x c m m m m c v v x x m m c m c x x m x ",
"m c m c m c c m c x c x c c m m m c m c m c c c c x m c m c x y k..X_ n c c n m c b x c c c m c m c m x c x x c m m m c c c c c m ",
"c c c c c c c c c c c c x x c c c c c c c c c c c c c c c c c 4 j..XX.n c c x n x x x x c c c c c c c c c c c c c m c c c c c c c ",
"c c c c c c c c c c c c c c c c c c c c c c c c c c c c c c c Z l..X_ x c c c n x c x x c c c c c c c m c c c c m m m c c c c c c ",
"c x c c x x x x c c c c x c c c c c c c c c c c c c c c c c c 4 l.'.R v c b x x x c x x c c m c c c c m c c c c x x x x c c c c c ",
"x c c c x x x x c c c c x x x c c m c c m c c m c c m c c x c y f._.a x c c c c c c c c c c c c c c c m c c c c x n x c c c c c c ",
"c x x c m x m m x m m x m m x c m m x m c m m x m m x m m c m 4 g._.X.f m c x x c m m m m x m x m c m m x m c c m n m n x c m c x "
};
