/* XPM */
static char *axer0_qxw1e[] = {
/* columns rows colors chars-per-pixel */
"32 32 223 2 ",
"   c #020102",
".  c #0A0100",
"X  c #010309",
"o  c #0C090A",
"O  c #030907",
"+  c #140400",
"@  c #1D0100",
"#  c #140901",
"$  c #1A0A01",
"%  c #140C0C",
"&  c #1D130C",
"*  c #1B1714",
"=  c #17181C",
"-  c #171719",
";  c #0D141C",
":  c #220A00",
">  c #270900",
",  c #23150D",
"<  c #2B170B",
"1  c #2D190C",
"2  c #2B1405",
"3  c #351C07",
"4  c #291C12",
"5  c #211B18",
"6  c #301F15",
"7  c #352113",
"8  c #3A2111",
"9  c #31221B",
"0  c #2A2017",
"q  c #121921",
"w  c #2D2725",
"e  c #342B2A",
"r  c #3B3633",
"t  c #482B19",
"y  c #4F301E",
"u  c #5B3519",
"i  c #62391D",
"p  c #6C3E1C",
"a  c #643718",
"s  c #753F19",
"d  c #763D17",
"f  c #4D3229",
"g  c #43362E",
"h  c #5B3A23",
"j  c #5B3E2C",
"k  c #4F3E34",
"l  c #623D24",
"z  c #653B2C",
"x  c #79431C",
"c  c #75411C",
"v  c #55473E",
"b  c #66432B",
"n  c #6A4428",
"m  c #7B4A26",
"M  c #74462D",
"N  c #794826",
"B  c #7D522F",
"V  c #684835",
"C  c #764C32",
"Z  c #65523D",
"A  c #7E5332",
"S  c #7E593F",
"D  c #785437",
"F  c #5D554E",
"G  c #685848",
"H  c #7D5B42",
"J  c #705F57",
"K  c #635A53",
"L  c #7F6045",
"P  c #77604E",
"I  c #73655C",
"U  c #8C4E1C",
"Y  c #874916",
"T  c #97541D",
"R  c #894D25",
"E  c #854E29",
"W  c #864C26",
"Q  c #934D26",
"!  c #924D2C",
"~  c #8D5326",
"^  c #85532B",
"/  c #8C532C",
"(  c #8E592D",
")  c #865024",
"_  c #955424",
"`  c #92542B",
"'  c #9B572B",
"]  c #935B2D",
"[  c #9C5C2D",
"{  c #975825",
"}  c #804E35",
"|  c #8E5433",
" . c #8B5A33",
".. c #855B3D",
"X. c #8D5C3B",
"o. c #855632",
"O. c #945C33",
"+. c #9B5C31",
"@. c #94593B",
"#. c #9B5E3A",
"$. c #965634",
"%. c #A15D2C",
"&. c #A05F27",
"*. c #A25E38",
"=. c #8F6339",
"-. c #9C6235",
";. c #96623C",
":. c #9B633C",
">. c #9A6539",
",. c #9B622B",
"<. c #A0612C",
"1. c #A26335",
"2. c #A46439",
"3. c #A6693E",
"4. c #AD6B3D",
"5. c #AA6539",
"6. c #B06C3F",
"7. c #855B42",
"8. c #8F5E40",
"9. c #9D5D41",
"0. c #925C40",
"q. c #8D6243",
"w. c #8B654A",
"e. c #876549",
"r. c #936442",
"t. c #9C6544",
"y. c #9C6A44",
"u. c #9A6C4B",
"i. c #9A664A",
"p. c #9B724D",
"a. c #93714E",
"s. c #8C6952",
"d. c #8C6C59",
"f. c #856959",
"g. c #956D54",
"h. c #966F59",
"j. c #986B53",
"k. c #9C7453",
"l. c #93715B",
"z. c #9D745A",
"x. c #A36341",
"c. c #A46B45",
"v. c #AA6C42",
"b. c #A26C49",
"n. c #AD6A46",
"m. c #A3724C",
"M. c #AB7349",
"N. c #B27243",
"B. c #B2714A",
"V. c #BE774B",
"C. c #BB794D",
"Z. c #AE7B55",
"A. c #A97855",
"S. c #B47A53",
"D. c #BC7B53",
"F. c #B47957",
"G. c #8B7566",
"H. c #A57E69",
"J. c #C37E54",
"K. c #B8815A",
"L. c #A78366",
"P. c #B48967",
"I. c #BC8B6B",
"U. c #B68B6A",
"Y. c #A98674",
"T. c #B38973",
"R. c #C3855C",
"E. c #C48257",
"W. c #C58962",
"Q. c #CE946C",
"!. c #C58C76",
"~. c #CC9576",
"^. c #D6A17F",
"/. c #AC9180",
"(. c #BFA294",
"). c #C59D86",
"_. c #D79B81",
"`. c #D8A58C",
"'. c #FFDFBB",
"]. c #FFE1BD",
"[. c #D9D6C9",
"{. c #DADBCD",
"}. c #D7DADE",
"|. c #DFDEDF",
" X c #DBD7D5",
".X c #DCCDCA",
"XX c #E4D4CD",
"oX c #E1DDCE",
"OX c #E7D8CB",
"+X c #FDDDCA",
"@X c #F4D9C6",
"#X c #E4D5D1",
"$X c #E6DBD2",
"%X c #EBDCD3",
"&X c #E6DCDA",
"*X c #E9DCDB",
"=X c #F6DED8",
"-X c #DFE0DB",
";X c #FFE5C3",
":X c #FEE4CC",
">X c #FFE8CC",
",X c #FBE5C7",
"<X c #EFE5DB",
"1X c #F2E0D2",
"2X c #FEE3D3",
"3X c #FFE9D4",
"4X c #F8E6DC",
"5X c #DCDEE3",
"6X c #E1DFE2",
"7X c #EAE7E7",
"8X c #E7E7E9",
"9X c #F4E9E2",
"0X c #F0ECEB",
"qX c #FFFAEF",
"wX c #FDF4EB",
"eX c #E5EDF6",
"rX c #FEFDF4",
"tX c #F6FDFF",
"yX c #FAFEFF",
"uX c #FFFFFF",
"iX c #FEFEFE",
"pX c #FDFDFC",
"aX c #F4FEF5",
/* pixels */
"iXpXiXiXyXiXpXiXyXyXiXiXiXpXrXrXpXpXiXiXiXyXpXpXrXrXqXqXwXiXtXtX",
"pX*X%X%X%X<X%XXX6X5X6X|.|.-X[.$X%X%X%X%X%X$X$X%X1X@X@X+X1X&XyXtX",
":X).U.I.P.U.L.s.v r e e w e k /.T.I.I.I.U.T.T.T.I.I.I.P.H.f.$XpX",
"'.m.-.-.-.-.( i : . . o . . : H.9.2.%.1.#.t.i.t.;.-.-.;...V XXrX",
">Xa. .+.+.+.O.i , o       . @ h.@.+._ [ +.:.t.:.-.] ] =.L G oXrX",
":Xs.o./ ' ` / u ,       X . @ 7./ { Y { ` ' O.| / ( O.o.C Z {.pX",
"2Xd.8.$.x.*.#.n 4         . @ o.] [ U 1.[ [ [ [ ' +.2.O.X.L %XiX",
"2Xl.r.$.n.x.@.n 4         . > A ] ,.~ 3.1.[ [ +.$.*.v.+.;.S %XpX",
":Xl.0.#.9.x.@.b , O       . + H =.]  .;.:.O.+.+.#.9.x.$.X.D &XiX",
">Xk.;.x.x.9.| l &       O   + l.y.:.r.r.;.+.1.1.:.x.x.#.X.C $XiX",
"].m.:.+.+.x.:.a 2 . . . . . : H.O.-.>.>.-.2.4.2.-.-.-.+. .V oXpX",
";Xq./ ` ` ~ W u 2 . . . . + > j./ +./ O.` ' ' _ ~ ] ~ ` ^ b [.aX",
",Xe.A ^ ( ^ B u ,         . @ 7.| ! W E R Q Q Q R ) ) E B V  XyX",
"3XY.A.y.Z.K.Z.D 9 X       . : g.B.B.c.F.S.D.V.D.v.Z.D.K.A.s.&XtX",
"+Xg.;.[ 4.1.] n ,     X   . + A [ [ / t.+.&.T T -.:.2.+.` ..#XiX",
"+Xz.:.[ N.2.+.N 7 % % o # $ : B -.2.O.y.-.1.&.<.O.;.v.2.' q.XXpX",
"=Xf.M N x c s i y f f f z z z M s x p p N x d s N N s x c C .XiX",
"4X(.`.^.Z.b.y.u.k.z.Y.).`._.!.!.c.c.u.g.w.M i M q.k.m.b.i.d.*XiX",
"2XY.F.R.v.1.' O.:.t.A.~.R.D.D.W.O.;.r.7.j < : 3 l ..:.;.q.d.%XrX",
"2Xz.;.N.4.%.' [ +.;.S.Q.v.%.1.B.' O.A h 1 . . # 8 b o.X.7.f.%XiX",
"+Xs.;.4.v.[ [ +.-.#.Z.Q.2._ ` +.-.o.h 1 . . . . # 8 l ..w.d.XXrX",
"3Xw. .v.D.2.2.*.-.:.F.W.[ U ` O.( i 2 + .         # 8 b e.l.%XpX",
"+XS E v.E.v.5.5.2.v.R.R.' U ~ m u 3 . . .       X   $ 8 b f.#XpX",
":Xw.) 2.D.E.J.V.J.D.R.S._ U ^ n 3 #             X X . $ t P #XpX",
":Xz.;.3.C.D.V.V.J.E.D.v.2.+. .b ,     . .           . . 6 G $XrX",
":Xz.:.:.2.v.5.4.v.B.c.#.2.#.X.V *               X   . . 0 K &XiX",
":Xw.^ / R / R ` ` $.| E $.| } b 5 X           O     . + 4 F }.yX",
":Xe.^ ) ^ / R ` / / ^ E / ^ C y &                   . + < F }.tX",
":Xz.m.:.M.M.v.3.v.3.v.c.3.v.u.h ,     X         X   . + 7 I 5XtX",
"2Xl.;. .b.;.;.O.;.O.y.:.+.:.X.t , O       . .   X X . . 1 J  XyX",
"=XY.h.z.L.z.k.p.p.p.k.k.p.p.g.Z w - - * & & - = ; q = 5 g G. XpX",
"rX4X2X:X+X>X>X;X;X;X;X].;X;X3X1X0X8X7X9X<X<X7X8XeXeX8X7X9X9XrXrX"
};
